<svg width="300" height="69" viewBox="0 0 300 69" fill="none" xmlns="http://www.w3.org/2000/svg">
<path d="M275.458 5.52029L276.109 9.33671L280.178 10.0224L276.511 11.6954L277.162 15.5118L274.245 12.7294L270.578 14.4024L272.442 11.0097L269.525 8.22728L273.594 8.91295L275.458 5.52029Z" fill="black"/>
<path d="M289.9 8.82327L293.161 14.4794L300 13.1809L295.177 17.975L298.439 23.6312L292.197 20.938L287.374 25.7322L288.339 19.2736L282.096 16.5804L288.935 15.2819L289.9 8.82327Z" fill="black"/>
<path d="M119.412 0.139729C119.823 0.237985 120.229 0.354704 120.635 0.471704C120.784 0.513329 120.933 0.554824 121.082 0.596192C121.453 0.699872 121.824 0.805555 122.195 0.911852C122.503 0.999737 122.811 1.08558 123.119 1.17163C124.238 1.48649 125.351 1.81196 126.431 2.24596C126.49 2.26957 126.549 2.29318 126.609 2.3175C127.659 2.74625 128.618 3.30995 129.583 3.90429C129.675 3.96007 129.767 4.01585 129.862 4.07331C131.053 4.80161 132.189 5.60557 133.309 6.43834C133.5 6.57948 133.692 6.71922 133.884 6.85856C134.684 7.44115 135.47 8.04145 136.249 8.65356C136.339 8.7239 136.428 8.79425 136.521 8.86672C136.969 9.22069 137.404 9.58188 137.824 9.96834C138.074 10.196 138.333 10.4119 138.591 10.6294C139.063 11.0295 139.515 11.4445 139.956 11.879C140.132 12.0503 140.312 12.2127 140.496 12.3741C140.865 12.7109 141.245 13.1343 141.401 13.6163C141.424 13.6681 141.448 13.72 141.472 13.7734C141.573 13.7899 141.674 13.8064 141.778 13.8234C142.063 13.8923 142.135 13.9615 142.309 14.2064C142.465 14.5008 142.606 14.7968 142.739 15.1029C142.771 15.1757 142.802 15.2484 142.835 15.3233C143.024 15.8104 143.083 16.2977 143.129 16.8158C143.806 16.9426 144.482 17.0335 145.166 17.1091C145.943 17.1969 146.717 17.2959 147.491 17.408C148.535 17.5571 149.58 17.6371 150.631 17.7136C154.338 17.9846 154.338 17.9846 155.618 19.3879C155.899 19.7635 155.964 20.1822 155.953 20.6443C155.666 22.3245 154.471 23.5936 153.311 24.7601C153.235 24.8414 153.16 24.9226 153.082 25.0063C151.933 26.2047 150.51 27.115 149.075 27.9332C148.883 28.0435 148.692 28.1547 148.5 28.2668C146.625 29.3664 144.721 30.358 142.742 31.2543C142.579 31.3283 142.417 31.4033 142.255 31.4784C141.026 32.0469 139.776 32.5228 138.496 32.9582C138.428 32.9813 138.36 33.0045 138.29 33.0283C136.376 33.6759 134.439 34.2322 132.481 34.7303C132.377 34.7568 132.273 34.7833 132.166 34.8106C121.73 37.4559 121.73 37.4559 119.14 36.0064C118.863 35.799 118.751 35.6801 118.642 35.3529C118.664 34.8772 118.942 34.6388 119.252 34.2967C119.372 34.1597 119.491 34.0225 119.611 33.8852C119.669 33.8193 119.727 33.7535 119.786 33.6856C119.988 33.4537 120.175 33.2147 120.361 32.9706C120.529 32.753 120.688 32.5585 120.882 32.3637C121.056 32.1822 121.18 32.0137 121.317 31.8045C121.646 31.3152 122.009 30.8561 122.376 30.395C122.505 30.2323 122.634 30.0694 122.763 29.9062C122.82 29.8353 122.876 29.7643 122.934 29.6912C123.073 29.5203 123.073 29.5203 123.134 29.3195C123.194 29.3123 123.254 29.3051 123.316 29.2976C123.341 29.2142 123.341 29.2142 123.367 29.1291C123.465 28.8836 123.589 28.7159 123.754 28.51C123.814 28.4351 123.873 28.3602 123.935 28.283C123.997 28.2056 124.059 28.1282 124.123 28.0484C124.667 27.3902 124.666 27.3902 125.123 26.6718C125.084 26.4205 124.959 26.2761 124.814 26.0664C124.629 25.7604 124.605 25.4879 124.575 25.1342C124.526 24.6354 124.417 24.3106 124.16 23.8858C123.217 22.3118 122.616 20.4588 122.134 18.6952C122.115 18.6249 122.095 18.5546 122.075 18.4822C121.851 17.6659 121.645 16.8469 121.466 16.0192C121.453 15.959 121.44 15.8988 121.427 15.8368C121.363 15.5396 121.299 15.2422 121.238 14.9443C121.119 14.3858 120.992 13.8829 120.72 13.3784C120.646 13.2241 120.646 13.2241 120.613 12.9501C120.518 13.0076 120.423 13.065 120.325 13.1241C118.824 14.0161 117.247 14.6719 115.622 15.2981C111.197 16.9592 111.197 16.9592 108.128 20.3815C108.097 20.4398 108.066 20.498 108.034 20.5581C107.736 21.2088 107.841 21.9725 108.076 22.6335C108.434 23.3078 108.919 23.5832 109.611 23.8172C110.228 23.9874 110.868 23.9604 111.458 23.7009C111.9 23.4352 112.203 23.1581 112.391 22.6702C112.475 22.2777 112.445 21.9254 112.327 21.5432C112.165 21.2655 112.165 21.2655 111.908 21.1304C111.628 21.0639 111.628 21.0639 111.363 21.1961C111.201 21.4437 111.101 21.706 110.996 21.9813C110.947 22.079 110.897 22.1766 110.847 22.2772C110.719 22.2314 110.592 22.1855 110.461 22.1384C110.406 21.4566 110.428 21.0005 110.881 20.452C111.264 20.0214 111.497 19.849 112.075 19.7879C112.589 19.7846 112.96 19.9762 113.359 20.2901C113.965 20.9828 114.082 21.6095 114.107 22.5331C113.994 23.4769 113.343 24.2569 112.631 24.8411C111.707 25.5325 110.688 25.8088 109.529 25.6604C108.389 25.4458 107.325 24.9562 106.62 23.9941C105.906 22.8444 105.684 21.4988 105.981 20.1768C106.398 18.5351 107.205 17.1686 108.226 15.8308C108.277 15.7649 108.327 15.6989 108.379 15.6309C108.545 15.4141 108.712 15.198 108.88 14.9822C108.958 14.8813 108.958 14.8813 109.038 14.7785C109.394 14.325 109.77 13.8945 110.157 13.468C110.292 13.3131 110.428 13.158 110.562 13.0024C110.804 12.7241 111.046 12.4473 111.293 12.1734C111.401 12.0523 111.51 11.9312 111.618 11.81C111.709 11.7084 111.709 11.7084 111.802 11.6048C112.681 10.6119 113.484 9.58579 114.166 8.4465C114.229 8.34582 114.292 8.24514 114.357 8.1414C115.326 6.57094 115.898 4.85592 116.498 3.11791C117.64 -0.185618 117.64 -0.185618 119.412 0.139729Z" fill="black"/>
<path d="M117.858 0.777144C117.953 0.8115 117.953 0.8115 118.051 0.84655C117.896 1.07915 117.741 1.31174 117.582 1.55139C117.658 1.53611 117.734 1.52084 117.813 1.5051C118.183 1.48228 118.455 1.5694 118.794 1.70076C118.858 1.72477 118.922 1.74878 118.989 1.77352C119.722 2.05123 120.443 2.35876 121.164 2.66647C121.302 2.7253 121.302 2.7253 121.443 2.78532C121.525 2.82066 121.607 2.85599 121.692 2.8924C121.913 2.98606 121.913 2.98606 122.189 3.03452C122.196 3.09479 122.203 3.15505 122.211 3.21714C122.273 3.23102 122.335 3.2449 122.399 3.25921C123.747 3.6603 125.016 4.43844 126.225 5.14214C126.289 5.17894 126.352 5.21574 126.417 5.25365C127.295 5.76618 128.124 6.33205 128.933 6.94653C128.991 6.99046 129.049 7.03438 129.109 7.07964C129.282 7.21119 129.454 7.34373 129.626 7.47684C129.705 7.53799 129.705 7.53799 129.787 7.60037C129.913 7.69988 130.035 7.80489 130.157 7.9108C130.164 7.97107 130.171 8.03133 130.178 8.09342C130.238 8.08619 130.299 8.07896 130.36 8.07152C130.519 8.22103 130.671 8.3776 130.82 8.53721C130.942 8.66755 130.942 8.66755 131.067 8.80053C131.297 9.05371 131.52 9.31119 131.74 9.57267C131.835 9.68144 131.835 9.68144 131.932 9.79241C132.777 10.8054 133.751 12.1447 134.008 13.4555C133.957 13.8798 133.616 14.154 133.297 14.4067C133.188 14.4876 133.078 14.5677 132.967 14.6468C132.908 14.6897 132.849 14.7325 132.789 14.7766C132.266 15.1497 131.721 15.476 131.165 15.7948C130.816 15.998 130.483 16.2173 130.151 16.4473C129.995 16.5446 129.995 16.5446 129.813 16.5665C130.045 16.7997 130.274 17.0233 130.538 17.2203C130.428 17.5289 130.137 17.6417 129.87 17.8101C128.122 18.9485 126.554 20.1861 125.585 22.0774C125.543 22.1564 125.5 22.2355 125.456 22.3169C125.275 22.669 125.163 22.9275 125.273 23.3191C125.571 23.1464 125.749 22.9433 125.956 22.6695C126.013 22.5956 126.069 22.5218 126.127 22.4456C126.169 22.3892 126.212 22.3328 126.255 22.2746C126.319 22.2975 126.382 22.3205 126.448 22.344C126.386 22.42 126.323 22.4959 126.259 22.5741C125.693 23.2747 125.119 23.9964 124.812 24.8566C124.846 25.0728 124.887 25.288 124.93 25.5024C124.954 25.6183 124.977 25.7342 125.001 25.8536C125.019 25.9428 125.038 26.032 125.057 26.124C124.997 26.1312 124.937 26.1384 124.875 26.1459C124.66 25.8047 124.607 25.5453 124.582 25.1449C124.529 24.6443 124.419 24.3124 124.16 23.8858C123.217 22.3118 122.616 20.4588 122.134 18.6952C122.115 18.6249 122.095 18.5546 122.075 18.4822C121.851 17.6659 121.645 16.8469 121.466 16.0192C121.453 15.959 121.44 15.8988 121.427 15.8368C121.363 15.5396 121.299 15.2422 121.238 14.9443C121.119 14.3858 120.992 13.8829 120.72 13.3784C120.646 13.2241 120.646 13.2241 120.613 12.9501C120.518 13.0076 120.423 13.065 120.325 13.1241C118.824 14.0161 117.247 14.6719 115.622 15.2981C111.197 16.9592 111.197 16.9592 108.128 20.3815C108.097 20.4398 108.066 20.498 108.034 20.5581C107.736 21.2088 107.841 21.9725 108.076 22.6335C108.434 23.3078 108.919 23.5832 109.611 23.8172C110.228 23.9874 110.868 23.9604 111.458 23.7009C111.9 23.4352 112.203 23.1581 112.391 22.6702C112.475 22.2777 112.445 21.9254 112.327 21.5432C112.165 21.2655 112.165 21.2655 111.908 21.1304C111.628 21.0639 111.628 21.0639 111.363 21.1961C111.201 21.4437 111.101 21.706 110.996 21.9813C110.947 22.079 110.897 22.1766 110.847 22.2772C110.719 22.2314 110.592 22.1855 110.461 22.1384C110.406 21.4566 110.428 21.0005 110.881 20.452C111.264 20.0214 111.497 19.849 112.075 19.7879C112.589 19.7846 112.96 19.9762 113.359 20.2901C113.965 20.9828 114.082 21.6095 114.107 22.5331C113.994 23.4769 113.343 24.2569 112.631 24.8411C111.707 25.5325 110.688 25.8088 109.529 25.6604C108.389 25.4458 107.325 24.9562 106.62 23.9941C105.888 22.8158 105.737 21.5318 105.981 20.1768C106.018 20.2334 106.055 20.2901 106.094 20.3484C106.339 20.1858 106.328 20.0239 106.395 19.739C107.057 17.2818 108.882 15.1251 110.626 13.3449C110.987 12.9627 111.322 12.5582 111.66 12.1552C111.849 11.9294 112.044 11.7091 112.243 11.4916C112.857 10.8126 113.401 10.0777 113.901 9.31206C113.961 9.22324 114.02 9.13442 114.081 9.04291C115.259 7.25743 116.015 5.3944 116.689 3.36942C117.382 1.29575 117.382 1.29575 117.858 0.777144Z" fill="black"/>
<path d="M119.412 0.139729C119.823 0.237985 120.229 0.354704 120.635 0.471704C120.784 0.513329 120.933 0.554824 121.082 0.596192C121.453 0.699872 121.824 0.805555 122.195 0.911852C122.503 0.999737 122.811 1.08558 123.119 1.17163C124.238 1.48649 125.351 1.81196 126.431 2.24596C126.49 2.26957 126.549 2.29318 126.609 2.3175C127.659 2.74625 128.618 3.30995 129.583 3.90429C129.675 3.96007 129.767 4.01585 129.862 4.07331C131.053 4.80161 132.189 5.60557 133.309 6.43834C133.5 6.57948 133.692 6.71922 133.884 6.85856C134.684 7.44115 135.47 8.04145 136.249 8.65356C136.339 8.7239 136.428 8.79425 136.521 8.86672C136.969 9.22069 137.404 9.58188 137.824 9.96834C138.074 10.196 138.333 10.4119 138.591 10.6294C139.063 11.0295 139.515 11.4445 139.956 11.879C140.132 12.0503 140.312 12.2127 140.496 12.3741C140.865 12.7109 141.245 13.1343 141.401 13.6163C141.424 13.6681 141.448 13.72 141.472 13.7734C141.573 13.7899 141.674 13.8064 141.778 13.8234C142.063 13.8923 142.135 13.9615 142.309 14.2064C142.465 14.5008 142.606 14.7968 142.739 15.1029C142.771 15.1757 142.802 15.2484 142.835 15.3233C143.024 15.8095 143.087 16.2979 143.129 16.8158C143.317 16.8544 143.504 16.893 143.697 16.9327C143.674 16.9966 143.652 17.0605 143.628 17.1263C142.157 17.3034 140.687 17.4804 139.172 17.6629C139.156 17.787 139.14 17.9111 139.124 18.039C139.034 18.0499 138.944 18.0607 138.852 18.0719C138.665 18.1585 138.48 18.249 138.296 18.3414C137.753 18.6079 137.201 18.8249 136.631 19.0281C135.217 19.4482 135.217 19.4482 134.036 20.2263C133.732 20.2861 133.732 20.2861 133.399 20.303C133.226 20.1835 133.226 20.1835 133.094 20.0619C132.622 20.3263 132.152 20.5923 131.688 20.8694C131.626 20.9064 131.564 20.9433 131.5 20.9814C131.377 21.0548 131.255 21.1285 131.132 21.2024C130.699 21.4618 130.699 21.4618 130.497 21.4861C130.478 21.5801 130.458 21.6741 130.439 21.7709C130.284 21.9328 130.123 22.0884 129.959 22.2398C129.652 22.5226 129.373 22.7964 129.126 23.1331C129.174 23.0989 129.223 23.0646 129.273 23.0293C131.653 21.3468 131.653 21.3468 132.316 21.2671C132.297 21.3611 132.277 21.4551 132.258 21.5519C132.198 21.5592 132.138 21.5664 132.076 21.5738C132.083 21.6341 132.09 21.6944 132.098 21.7565C131.968 21.9157 131.968 21.9157 131.793 22.1C131.536 22.3784 131.323 22.6502 131.138 22.9835C131.207 22.9247 131.207 22.9247 131.277 22.8648C133.2 21.2881 135.704 20.5623 138.06 19.9271C138.208 19.8863 138.208 19.8863 138.36 19.8446C141.282 19.0473 141.282 19.0473 142.222 19.2408C141.677 22.0384 137.286 24.903 135.259 26.563C135.194 26.6166 135.129 26.6702 135.061 26.7254C134.25 27.3885 133.424 28.0057 132.539 28.5662C132.378 28.6682 132.218 28.7715 132.059 28.875C129.242 30.6849 126.056 31.7702 122.881 32.7688C121.726 33.1107 121.726 33.1107 120.639 33.6172C120.434 33.7202 120.434 33.7202 120.15 33.6618C120.22 33.5731 120.29 33.4844 120.362 33.393C120.623 33.0607 120.884 32.7281 121.145 32.3955C121.258 32.2521 121.37 32.1088 121.483 31.9656C121.646 31.7586 121.809 31.5513 121.971 31.344C122.021 31.281 122.07 31.2181 122.122 31.1533C122.421 30.7707 122.701 30.3797 122.97 29.9749C123.196 29.644 123.448 29.3333 123.698 29.0201C124.411 28.128 124.411 28.128 124.996 27.1502C125.056 27.143 125.116 27.1358 125.178 27.1283C125.203 27.0508 125.203 27.0508 125.228 26.9718C125.337 26.6865 125.474 26.4205 125.614 26.1496C125.501 26.2243 125.388 26.299 125.272 26.376C125.265 26.3157 125.257 26.2555 125.25 26.1934C125.163 26.2344 125.077 26.2753 124.988 26.3175C124.626 24.9175 124.626 24.9175 124.874 24.4093C124.967 24.2627 125.066 24.12 125.168 23.9801C125.24 23.8769 125.313 23.7735 125.384 23.6701C125.534 23.4572 125.686 23.2467 125.84 23.0377C126.054 22.7506 126.054 22.7506 126.266 22.3659C125.87 22.8721 125.87 22.8721 125.466 23.3885C125.373 23.3692 125.279 23.3499 125.182 23.3301C125.045 22.7025 125.422 22.2181 125.723 21.6902C125.754 21.6368 125.784 21.5834 125.815 21.5284C126.725 19.9481 128.131 18.8368 129.643 17.8654C130.077 17.5866 130.077 17.5866 130.447 17.2313C130.439 17.171 130.432 17.1107 130.425 17.0486C130.366 17.0328 130.307 17.017 130.246 17.0007C130.002 16.8938 129.948 16.7898 129.813 16.5665C129.86 16.5366 129.908 16.5067 129.957 16.476C132.173 15.3149 132.173 15.3149 133.893 13.667C133.885 13.0123 133.641 12.558 133.318 11.9995C133.246 11.8732 133.246 11.8732 133.173 11.7444C132.817 11.1266 132.436 10.5537 131.977 10.0073C131.935 9.95625 131.893 9.90519 131.85 9.85259C131.751 9.73459 131.649 9.6188 131.547 9.50327C131.483 9.42507 131.418 9.34688 131.352 9.26632C131.091 8.9686 130.813 8.69326 130.53 8.41723C130.382 8.25413 130.382 8.25413 130.36 8.07152C130.3 8.07874 130.24 8.08597 130.178 8.09342C130.049 7.98926 130.049 7.98926 129.888 7.83318C128.968 6.98408 127.983 6.27164 126.904 5.64317C126.742 5.548 126.582 5.45035 126.422 5.35148C125.214 4.61078 123.949 3.96982 122.643 3.42125C122.497 3.35833 122.353 3.28843 122.211 3.21714C122.204 3.15687 122.196 3.09661 122.189 3.03452C122.122 3.03243 122.055 3.03034 121.987 3.02819C121.703 2.9957 121.497 2.92035 121.236 2.80692C121.144 2.76728 121.051 2.72764 120.956 2.6868C120.859 2.64445 120.761 2.60211 120.661 2.55848C119.692 2.14386 119.692 2.14386 118.709 1.76307C118.61 1.72672 118.511 1.69036 118.41 1.6529C118.127 1.57371 117.875 1.55281 117.582 1.55139C117.664 1.31053 117.754 1.09707 117.869 0.868449C117.285 1.61553 117.048 2.51597 116.754 3.4053C116.004 5.67476 115.156 7.70124 113.725 9.62787C113.554 9.85857 113.392 10.0908 113.234 10.3303C112.697 11.1274 112.083 11.8676 111.433 12.5733C111.233 12.7939 111.033 13.015 110.832 13.2361C110.779 13.2952 110.726 13.3542 110.671 13.4151C110.241 13.8902 109.819 14.3706 109.401 14.8558C109.322 14.9462 109.242 15.0365 109.161 15.1297C107.785 16.7041 106.959 18.3603 106.276 20.3265C106.216 20.3338 106.156 20.341 106.094 20.3484C106.08 19.8532 106.161 19.4644 106.347 19.0038C106.373 18.9405 106.398 18.8771 106.424 18.8119C107.008 17.3897 107.944 16.1856 108.88 14.9822C108.932 14.915 108.984 14.8477 109.038 14.7785C109.394 14.325 109.77 13.8945 110.157 13.468C110.292 13.3131 110.428 13.158 110.562 13.0024C110.804 12.7241 111.046 12.4473 111.293 12.1734C111.401 12.0523 111.51 11.9312 111.618 11.81C111.709 11.7084 111.709 11.7084 111.802 11.6048C112.681 10.6119 113.484 9.58579 114.166 8.4465C114.229 8.34582 114.292 8.24514 114.357 8.1414C115.326 6.57094 115.898 4.85592 116.498 3.11791C117.64 -0.185618 117.64 -0.185618 119.412 0.139729Z" fill="black"/>
<path d="M131.637 17.9216C131.674 17.9898 131.711 18.0581 131.75 18.1284C132.081 18.7338 132.081 18.7338 132.477 19.2967C132.672 19.569 132.695 19.6909 132.719 20.0144C132.611 20.0682 132.611 20.0682 132.5 20.1232C130.54 21.1452 128.444 22.6355 127.064 24.4003C127.103 24.3621 127.142 24.324 127.182 24.2847C127.947 23.5374 128.726 22.8193 129.569 22.1594C129.641 22.102 129.714 22.0445 129.789 21.9853C129.89 21.9074 129.89 21.9074 129.993 21.8278C130.083 21.7589 130.083 21.7589 130.174 21.6885C130.224 21.6591 130.274 21.6296 130.326 21.5993C130.389 21.6222 130.453 21.6451 130.519 21.6687C130.408 21.7759 130.408 21.7759 130.295 21.8852C130.198 21.9804 130.1 22.0756 130.002 22.1708C129.954 22.2177 129.905 22.2647 129.855 22.313C129.59 22.5726 129.347 22.833 129.126 23.1331C129.174 23.0989 129.223 23.0646 129.273 23.0293C131.653 21.3468 131.653 21.3468 132.316 21.2671C132.297 21.3611 132.277 21.4551 132.258 21.5519C132.198 21.5592 132.138 21.5664 132.076 21.5738C132.083 21.6341 132.09 21.6944 132.098 21.7565C131.968 21.9157 131.968 21.9157 131.793 22.1C131.536 22.3784 131.323 22.6502 131.138 22.9835C131.184 22.9443 131.23 22.9051 131.277 22.8648C133.2 21.2881 135.704 20.5623 138.06 19.9271C138.159 19.8999 138.258 19.8727 138.36 19.8446C141.282 19.0473 141.282 19.0473 142.222 19.2408C141.677 22.0384 137.286 24.903 135.259 26.563C135.194 26.6166 135.129 26.6702 135.061 26.7254C134.25 27.3885 133.424 28.0057 132.539 28.5662C132.378 28.6682 132.218 28.7715 132.059 28.875C129.242 30.6849 126.056 31.7702 122.881 32.7688C121.726 33.1107 121.726 33.1107 120.639 33.6172C120.434 33.7202 120.434 33.7202 120.15 33.6618C120.22 33.5731 120.29 33.4844 120.362 33.393C120.623 33.0607 120.884 32.7281 121.145 32.3955C121.258 32.2521 121.37 32.1088 121.483 31.9656C121.646 31.7586 121.809 31.5513 121.971 31.344C122.021 31.281 122.07 31.2181 122.122 31.1533C122.421 30.7707 122.701 30.3797 122.97 29.9749C123.196 29.644 123.448 29.3333 123.698 29.0201C124.411 28.128 124.411 28.128 124.996 27.1502C125.056 27.143 125.116 27.1358 125.178 27.1283C125.194 27.0767 125.211 27.025 125.228 26.9718C125.337 26.6865 125.474 26.4205 125.614 26.1496C125.444 26.2617 125.444 26.2617 125.272 26.376C125.265 26.3157 125.257 26.2555 125.25 26.1934C125.12 26.2548 125.12 26.2548 124.988 26.3175C124.626 24.9175 124.626 24.9175 124.874 24.4093C124.967 24.263 125.066 24.1202 125.168 23.9801C125.232 23.8852 125.296 23.7903 125.361 23.6924C126.435 22.1107 129.552 18.1726 131.637 17.9216Z" fill="black"/>
<path d="M150.043 18.2991C151.648 18.0517 153.357 17.9602 154.743 18.9722C155.286 19.4608 155.684 19.9637 155.729 20.7144C155.673 21.5901 155.175 22.2557 154.66 22.9305C154.614 22.9931 154.568 23.0556 154.521 23.1201C154.124 23.6504 153.663 24.1188 153.198 24.5885C153.122 24.6667 153.046 24.7449 152.967 24.8254C149.647 28.1365 144.414 30.736 139.996 32.1987C140.064 32.2517 140.131 32.3048 140.2 32.3594C139.758 32.5119 139.316 32.6638 138.874 32.8154C138.724 32.8666 138.575 32.918 138.425 32.9695C136.504 33.6325 134.565 34.1947 132.594 34.6917C132.268 34.774 131.942 34.8572 131.616 34.9404C131.407 34.9935 131.197 35.0466 130.988 35.0996C130.892 35.1242 130.795 35.1489 130.696 35.1742C130.266 35.2823 129.847 35.3829 129.404 35.4192C129.4 35.389 129.396 35.3589 129.393 35.3279C128.054 35.4759 128.054 35.4759 126.727 35.6952C120.866 36.8038 120.866 36.8038 119.108 35.7325C118.987 35.3997 118.987 35.3997 118.94 35.1043C119.554 34.6365 120.133 34.3905 120.918 34.471C121.149 34.5084 121.381 34.5468 121.612 34.5861C122.091 34.6586 122.568 34.6668 123.051 34.673C123.133 34.6742 123.214 34.6754 123.298 34.6766C125.719 34.6957 128.058 34.3142 130.399 33.7246C130.491 33.7017 130.583 33.6788 130.677 33.6552C131.512 33.4448 132.334 33.22 133.139 32.9136C133.411 32.8101 133.685 32.7128 133.96 32.6171C134.237 32.5207 134.512 32.4224 134.788 32.3241C134.947 32.2679 135.105 32.2121 135.264 32.1567C139.952 30.516 143.784 27.8683 147.37 24.4566C147.42 24.4093 147.47 24.362 147.521 24.3133C148.734 23.1641 149.845 21.9457 150.478 20.3773C150.523 20.2801 150.568 20.1829 150.615 20.0828C150.716 19.6677 150.703 19.2925 150.575 18.8835C150.33 18.6349 150.33 18.6349 150.065 18.4818C150.058 18.4215 150.051 18.3612 150.043 18.2991Z" fill="black"/>
<path d="M143.697 16.9327C143.917 16.9517 144.131 16.9773 144.349 17.008C144.417 17.017 144.484 17.026 144.553 17.0352C144.695 17.0543 144.838 17.0737 144.981 17.0933C145.32 17.1397 145.659 17.184 145.999 17.2284C146.066 17.2373 146.133 17.2461 146.203 17.2552C147.684 17.4491 149.16 17.6119 150.651 17.7157C154.329 17.9744 154.329 17.9744 155.618 19.3879C155.899 19.7635 155.964 20.1822 155.953 20.6443C155.666 22.3245 154.471 23.5936 153.311 24.7601C153.235 24.8414 153.16 24.9226 153.082 25.0063C151.933 26.2047 150.51 27.115 149.075 27.9332C148.883 28.0435 148.692 28.1547 148.5 28.2668C146.57 29.3987 144.608 30.4151 142.568 31.3333C142.403 31.4077 142.403 31.4077 142.235 31.4836C141.942 31.615 141.647 31.7448 141.353 31.8733C141.269 31.9101 141.185 31.9468 141.099 31.9847C140.701 32.1538 140.354 32.2803 139.916 32.3009C139.985 32.1074 139.985 32.1074 140.138 32.0346C140.206 32.0112 140.274 31.9877 140.345 31.9635C140.424 31.9353 140.503 31.9071 140.584 31.8781C140.717 31.831 140.717 31.831 140.852 31.7831C143.329 30.8647 145.653 29.6261 147.922 28.2805C148.076 28.1903 148.23 28.1002 148.384 28.0102C151.058 26.4404 154.459 24.3072 155.565 21.2469C155.667 20.7456 155.636 20.2746 155.388 19.8201C154.698 18.8774 153.815 18.4476 152.68 18.2621C149.797 17.9481 147.031 19.2566 144.72 20.882C144.549 21.002 144.376 21.1193 144.203 21.2362C143.297 21.8509 142.441 22.5178 141.591 23.2071C141.528 23.258 141.465 23.3089 141.4 23.3614C140.776 23.8651 140.156 24.3722 139.546 24.892C136.825 27.2078 133.971 29.3875 130.82 31.0804C130.736 31.126 130.736 31.126 130.65 31.1725C127.895 32.6467 124.864 33.4031 121.848 34.1256C120.391 34.476 120.391 34.476 119.031 35.0934C119.055 35.4029 119.055 35.4029 119.198 35.7215C120.049 36.3058 121.445 36.1544 122.409 36.0934C122.529 36.0863 122.649 36.0793 122.772 36.072C124.156 35.987 125.527 35.8338 126.889 35.5699C127.743 35.4081 128.609 35.3216 129.473 35.2256C129.45 35.2895 129.427 35.3534 129.404 35.4192C129.151 35.4929 128.905 35.5539 128.648 35.6086C128.57 35.6255 128.493 35.6425 128.413 35.66C128.175 35.7113 127.936 35.7609 127.698 35.8098C127.633 35.8232 127.569 35.8365 127.503 35.8503C121.17 37.1421 121.17 37.1421 119.14 36.0064C118.863 35.799 118.751 35.6801 118.642 35.3529C118.664 34.8772 118.942 34.6388 119.252 34.2967C119.372 34.1597 119.491 34.0225 119.611 33.8852C119.698 33.7864 119.698 33.7864 119.786 33.6856C119.988 33.4537 120.175 33.2147 120.361 32.9706C120.529 32.753 120.688 32.5585 120.882 32.3637C121.056 32.1822 121.18 32.0137 121.317 31.8045C121.646 31.3152 122.009 30.8561 122.376 30.395C122.505 30.2323 122.634 30.0694 122.763 29.9062C122.82 29.8353 122.876 29.7643 122.934 29.6912C123.073 29.5203 123.073 29.5203 123.134 29.3195C123.194 29.3123 123.254 29.3051 123.316 29.2976C123.333 29.242 123.35 29.1864 123.367 29.1291C123.465 28.8836 123.589 28.7159 123.754 28.51C123.844 28.3976 123.844 28.3976 123.935 28.283C123.997 28.2056 124.059 28.1282 124.123 28.0484C124.812 27.3087 124.812 27.3087 125.115 26.4123C125.099 26.3473 125.084 26.2823 125.068 26.2153C125.128 26.2081 125.188 26.2008 125.25 26.1934C125.257 26.2536 125.264 26.3139 125.272 26.376C125.411 26.2675 125.55 26.1591 125.694 26.0473C125.579 26.428 125.401 26.7998 125.178 27.1283C125.118 27.1356 125.058 27.1428 124.996 27.1502C124.978 27.2069 124.96 27.2636 124.942 27.3219C124.856 27.5411 124.757 27.6989 124.618 27.8875C124.57 27.9533 124.521 28.0192 124.472 28.087C124.42 28.1564 124.368 28.2259 124.315 28.2974C124.262 28.3695 124.209 28.4415 124.154 28.5157C123.756 29.0518 123.348 29.5787 122.931 30.0995C122.768 30.3132 122.618 30.5247 122.47 30.7484C122.067 31.3475 121.613 31.9078 121.167 32.4742C121.077 32.5887 120.987 32.7033 120.897 32.8179C120.679 33.0957 120.46 33.3733 120.241 33.6508C120.333 33.6118 120.424 33.5728 120.518 33.5326C120.975 33.3417 121.439 33.1733 121.905 33.0047C122.057 32.9496 122.057 32.9496 122.212 32.8934C122.885 32.6513 123.562 32.4224 124.242 32.2023C129.486 30.4971 133.661 27.9884 137.757 24.3171C137.847 24.2364 137.847 24.2364 137.94 24.1542C138.647 23.5225 139.346 22.8899 139.993 22.1953C140.038 22.1479 140.082 22.1006 140.128 22.0518C141.192 20.9454 141.192 20.9454 142.015 19.6604C142.054 19.5815 142.093 19.5026 142.133 19.4214C142.177 19.332 142.177 19.332 142.222 19.2408C140.422 19.3672 138.727 19.8367 137.001 20.3325C136.854 20.3746 136.854 20.3746 136.704 20.4176C134.826 20.9648 132.823 21.6709 131.32 22.9616C131.26 22.9689 131.2 22.9761 131.138 22.9835C131.234 22.6571 131.384 22.4307 131.593 22.1646C131.649 22.0924 131.705 22.0202 131.763 21.9458C131.916 21.7784 131.916 21.7784 132.098 21.7565C132.091 21.6962 132.083 21.6359 132.076 21.5738C132.194 21.4091 132.194 21.409 132.316 21.2671C131.367 21.7635 130.452 22.2762 129.588 22.9112C129.163 23.2213 129.163 23.2213 128.864 23.2573C129.295 22.7458 129.741 22.2804 130.248 21.8442C130.427 21.6916 130.427 21.6916 130.537 21.53C130.683 21.3548 130.819 21.2632 131.015 21.1484C131.116 21.0887 131.116 21.0887 131.218 21.0278C131.288 20.9872 131.358 20.9466 131.43 20.9048C131.499 20.8639 131.569 20.823 131.64 20.7809C131.832 20.668 132.024 20.5566 132.217 20.4453C132.297 20.3976 132.377 20.3499 132.46 20.3007C132.65 20.208 132.65 20.208 133.014 20.1642C133.036 20.1003 133.059 20.0364 133.083 19.9706C133.12 20.012 133.157 20.0533 133.196 20.0959C133.499 20.2781 133.686 20.2154 134.025 20.135C134.145 20.0679 134.262 19.9965 134.377 19.9218C134.804 19.6593 135.245 19.4724 135.711 19.2894C135.795 19.2559 135.878 19.2224 135.964 19.1879C136.379 19.0219 136.795 18.8587 137.211 18.6963C137.324 18.6523 137.324 18.6523 137.438 18.6075C137.578 18.5528 137.718 18.4986 137.858 18.445C138.268 18.2852 138.636 18.0975 139.012 17.8674C139.045 17.8939 139.079 17.9204 139.114 17.9477C139.133 17.8537 139.152 17.7597 139.172 17.6629C140.105 17.4424 141.046 17.3367 141.997 17.23C142.302 17.1958 142.607 17.161 142.911 17.1258C143.016 17.1143 143.016 17.1143 143.123 17.1026C143.288 17.0835 143.453 17.0598 143.617 17.035C143.644 17.0013 143.67 16.9675 143.697 16.9327Z" fill="black"/>
<path d="M116.716 7.39851C117.754 7.47556 118.579 8.12722 119.29 8.84862C119.521 9.12233 119.738 9.40308 119.945 9.69598C119.914 8.81948 119.359 8.19099 118.852 7.51188C119.792 7.70455 120.387 8.75959 120.934 9.48423C120.981 9.54548 121.028 9.60673 121.076 9.66984C122.154 11.1876 122.016 13.1318 121.805 14.8913C121.675 16.0392 122.107 17.1687 122.422 18.261C122.454 18.3703 122.454 18.3703 122.486 18.4817C123.226 21.6538 123.226 21.6538 124.837 24.2979C124.89 24.2073 124.89 24.2073 124.944 24.1149C125.336 23.4614 125.775 22.8653 126.255 22.2746C126.319 22.2975 126.382 22.3205 126.448 22.344C126.386 22.42 126.323 22.4959 126.259 22.5741C125.693 23.2747 125.119 23.9964 124.812 24.8566C124.846 25.0728 124.887 25.288 124.93 25.5024C124.954 25.6183 124.977 25.7342 125.001 25.8536C125.019 25.9428 125.038 26.032 125.057 26.124C124.997 26.1312 124.937 26.1384 124.875 26.1459C124.66 25.8047 124.607 25.5453 124.582 25.1449C124.529 24.6443 124.419 24.3124 124.16 23.8858C123.217 22.3118 122.616 20.4588 122.134 18.6952C122.115 18.6249 122.095 18.5546 122.075 18.4822C121.851 17.6659 121.645 16.8469 121.466 16.0192C121.453 15.959 121.44 15.8988 121.427 15.8368C121.363 15.5396 121.299 15.2422 121.238 14.9443C121.119 14.3858 120.992 13.8829 120.72 13.3784C120.646 13.2241 120.646 13.2241 120.613 12.9501C120.518 13.0076 120.423 13.065 120.325 13.1241C118.824 14.0161 117.247 14.6719 115.622 15.2981C111.197 16.9592 111.197 16.9592 108.128 20.3815C108.097 20.4398 108.066 20.498 108.034 20.5581C107.736 21.2088 107.841 21.9725 108.076 22.6335C108.434 23.3078 108.919 23.5832 109.611 23.8172C110.228 23.9874 110.868 23.9604 111.458 23.7009C111.9 23.4352 112.203 23.1581 112.391 22.6702C112.475 22.2777 112.445 21.9254 112.327 21.5432C112.165 21.2655 112.165 21.2655 111.908 21.1304C111.628 21.0639 111.628 21.0639 111.363 21.1961C111.201 21.4437 111.101 21.706 110.996 21.9813C110.947 22.079 110.897 22.1766 110.847 22.2772C110.719 22.2314 110.592 22.1855 110.461 22.1384C110.406 21.4566 110.428 21.0005 110.881 20.452C111.264 20.0214 111.497 19.849 112.075 19.7879C112.589 19.7846 112.96 19.9762 113.359 20.2901C113.965 20.9828 114.082 21.6095 114.107 22.5331C113.994 23.4769 113.343 24.2569 112.631 24.8411C111.707 25.5325 110.688 25.8088 109.529 25.6604C108.389 25.4458 107.325 24.9562 106.62 23.9941C106.219 23.3489 105.994 22.7001 105.905 21.9458C105.892 21.8366 105.879 21.7274 105.865 21.6149C105.843 21.3463 105.845 21.1048 105.876 20.8378C105.936 20.8306 105.996 20.8234 106.058 20.8159C106.081 20.6297 106.081 20.6297 106.105 20.4398C106.135 20.4361 106.165 20.4325 106.196 20.4288C106.204 20.5244 106.204 20.5243 106.212 20.6218C106.356 22.2789 106.518 23.3495 107.792 24.4975C107.676 24.2374 107.676 24.2374 107.533 24.0221C106.868 22.9204 106.72 21.6492 107.011 20.3969C107.035 20.311 107.059 20.2251 107.083 20.1367C107.101 20.0679 107.118 19.999 107.136 19.9281C107.672 18.135 109.395 16.8607 110.96 15.987C112.235 15.2998 113.564 14.7191 114.908 14.1812C116.453 13.6071 116.453 13.6071 117.604 12.4788C117.939 11.4822 117.475 10.2711 117.225 9.2824C117.192 9.14854 117.159 9.01467 117.126 8.88078C116.943 8.13352 116.943 8.13352 116.716 7.39851Z" fill="black"/>
<path d="M137.624 14.2212C137.969 14.5963 138.08 14.9961 138.228 15.4781C138.285 15.656 138.342 15.8337 138.4 16.0114C138.428 16.0982 138.456 16.185 138.485 16.2745C138.597 16.5963 138.734 16.903 138.88 17.2107C138.966 17.4347 139.001 17.6278 139.012 17.8674C138.763 18.2247 138.348 18.3444 137.957 18.498C137.887 18.5264 137.816 18.5548 137.744 18.5841C137.352 18.7415 136.958 18.8921 136.563 19.0395C135.968 19.2616 135.392 19.5072 134.818 19.779C134.715 19.8279 134.715 19.8279 134.61 19.8777C134.292 20.0096 134.292 20.0096 134.036 20.2263C133.745 20.3019 133.745 20.3019 133.399 20.303C132.888 19.9133 132.6 19.3951 132.278 18.8459C132.227 18.7597 132.175 18.6736 132.122 18.5848C131.595 17.6995 131.595 17.6995 131.516 17.253C131.502 17.1852 131.489 17.1173 131.474 17.0475C131.522 16.7014 131.74 16.5187 131.996 16.3037C132.225 16.1385 132.464 15.9945 132.709 15.8532C132.776 15.8135 132.844 15.7739 132.913 15.7331C136.515 13.6488 136.515 13.6488 137.624 14.2212Z" fill="black"/>
<path d="M153.051 17.9949C153.125 18.0105 153.199 18.0262 153.275 18.0423C154.285 18.2728 155.139 18.7597 155.775 19.5947C156.074 20.4542 155.904 21.2161 155.52 22.0284C154.938 23.0522 154.136 23.9305 153.311 24.7601C153.235 24.8414 153.16 24.9226 153.082 25.0063C151.933 26.2047 150.51 27.115 149.075 27.9332C148.883 28.0435 148.692 28.1547 148.5 28.2668C146.57 29.3987 144.608 30.4151 142.568 31.3333C142.403 31.4077 142.403 31.4077 142.235 31.4836C141.942 31.615 141.647 31.7448 141.353 31.8733C141.269 31.9101 141.185 31.9468 141.099 31.9847C140.701 32.1538 140.354 32.2803 139.916 32.3009C139.985 32.1074 139.985 32.1074 140.138 32.0346C140.206 32.0112 140.274 31.9877 140.345 31.9635C140.424 31.9353 140.503 31.9071 140.584 31.8781C140.717 31.831 140.717 31.831 140.852 31.7831C143.329 30.8647 145.653 29.6261 147.922 28.2805C148.076 28.1903 148.23 28.1002 148.384 28.0102C151.058 26.4404 154.459 24.3072 155.565 21.2469C155.667 20.7456 155.636 20.2746 155.388 19.8201C154.698 18.8774 153.815 18.4476 152.68 18.2621C149.797 17.9481 147.031 19.2566 144.72 20.882C144.549 21.002 144.376 21.1193 144.203 21.2362C143.297 21.8509 142.441 22.5178 141.591 23.2071C141.528 23.258 141.465 23.3089 141.4 23.3614C140.776 23.8651 140.156 24.3722 139.546 24.892C136.825 27.2078 133.971 29.3875 130.82 31.0804C130.736 31.126 130.736 31.126 130.65 31.1725C127.895 32.6467 124.864 33.4031 121.848 34.1256C120.391 34.476 120.391 34.476 119.031 35.0934C119.055 35.4029 119.055 35.4029 119.198 35.7215C120.049 36.3058 121.445 36.1544 122.409 36.0934C122.529 36.0863 122.649 36.0793 122.772 36.072C124.156 35.987 125.527 35.8338 126.889 35.5699C127.743 35.4081 128.609 35.3216 129.473 35.2256C129.45 35.2895 129.427 35.3534 129.404 35.4192C129.151 35.4929 128.905 35.5539 128.648 35.6086C128.57 35.6255 128.493 35.6425 128.413 35.66C128.175 35.7113 127.936 35.7609 127.698 35.8098C127.633 35.8232 127.569 35.8365 127.503 35.8503C121.17 37.1421 121.17 37.1421 119.14 36.0064C118.863 35.799 118.751 35.6801 118.642 35.3529C118.664 34.8772 118.942 34.6388 119.252 34.2967C119.372 34.1597 119.491 34.0225 119.611 33.8852C119.698 33.7864 119.698 33.7864 119.786 33.6856C119.988 33.4537 120.175 33.2147 120.361 32.9706C120.529 32.753 120.688 32.5585 120.882 32.3637C121.056 32.1822 121.18 32.0137 121.317 31.8045C121.646 31.3152 122.009 30.8561 122.376 30.395C122.505 30.2323 122.634 30.0694 122.763 29.9062C122.82 29.8353 122.876 29.7643 122.934 29.6912C123.073 29.5203 123.073 29.5203 123.134 29.3195C123.194 29.3123 123.254 29.3051 123.316 29.2976C123.333 29.242 123.35 29.1864 123.367 29.1291C123.465 28.8836 123.589 28.7159 123.754 28.51C123.844 28.3976 123.844 28.3976 123.935 28.283C123.997 28.2056 124.059 28.1282 124.123 28.0484C124.812 27.3087 124.812 27.3087 125.115 26.4123C125.099 26.3473 125.084 26.2823 125.068 26.2153C125.128 26.2081 125.188 26.2008 125.25 26.1934C125.257 26.2536 125.264 26.3139 125.272 26.376C125.411 26.2675 125.55 26.1591 125.694 26.0473C125.579 26.428 125.401 26.7998 125.178 27.1283C125.118 27.1356 125.058 27.1428 124.996 27.1502C124.978 27.2069 124.96 27.2636 124.942 27.3219C124.856 27.5411 124.757 27.6989 124.618 27.8875C124.57 27.9533 124.521 28.0192 124.472 28.087C124.42 28.1564 124.368 28.2259 124.315 28.2974C124.262 28.3695 124.209 28.4415 124.154 28.5157C123.756 29.0518 123.348 29.5787 122.931 30.0995C122.764 30.3178 122.61 30.5349 122.458 30.7632C122.177 31.1784 121.876 31.573 121.564 31.9657C121.51 32.0347 121.456 32.1037 121.4 32.1748C121.229 32.3922 121.057 32.6093 120.886 32.8264C120.658 33.1149 120.431 33.4037 120.203 33.6926C120.151 33.759 120.098 33.8253 120.044 33.8937C119.921 34.0498 119.801 34.208 119.681 34.3666C119.685 34.3967 119.689 34.4269 119.692 34.4579C119.786 34.4253 119.879 34.3927 119.975 34.3592C120.995 34.0138 122.026 33.742 123.072 33.489C125.838 32.8191 128.55 31.9711 131.043 30.5696C131.27 30.4437 131.503 30.3286 131.736 30.2117C133.338 29.3588 134.825 28.2958 136.256 27.1839C136.323 27.1326 136.389 27.0813 136.457 27.0284C137.258 26.4055 138.042 25.7624 138.819 25.1097C146.483 18.6779 146.483 18.6779 150.298 18.0195C150.422 17.9978 150.422 17.9978 150.549 17.9756C151.408 17.8354 152.199 17.8129 153.051 17.9949Z" fill="black"/>
<path d="M131.124 18.2612C131.358 18.6357 131.494 18.8777 131.529 19.324C131.444 19.3836 131.36 19.4432 131.273 19.5046C129.942 20.456 128.815 21.5574 127.696 22.7495C127.587 22.8644 127.587 22.8644 127.475 22.9816C127.141 23.3443 126.871 23.7162 126.611 24.1364C125.864 25.3454 125.864 25.3454 125.27 25.4963C124.98 25.4848 124.98 25.4848 124.787 25.4154C124.653 24.9351 124.785 24.6514 125.012 24.2352C126.006 22.6116 129.037 18.5125 131.124 18.2612Z" fill="black"/>
<path d="M153.565 18.4309C154.399 18.6843 155.005 19.0957 155.497 19.8301C155.771 20.3626 155.767 20.8644 155.592 21.4288C155.366 21.9879 155.023 22.4539 154.66 22.9305C154.614 22.9931 154.568 23.0556 154.521 23.1201C154.124 23.6504 153.663 24.1188 153.198 24.5885C153.122 24.6667 153.046 24.7449 152.967 24.8254C150.243 27.5416 146.294 29.4898 142.824 31.0651C142.763 31.0931 142.701 31.121 142.638 31.1498C142.462 31.2299 142.285 31.3092 142.108 31.3883C141.955 31.4572 141.955 31.4572 141.798 31.5275C141.493 31.6495 141.191 31.7368 140.873 31.8153C141.046 31.5938 141.138 31.549 141.39 31.4404C141.465 31.4075 141.539 31.3747 141.616 31.3408C141.698 31.3052 141.78 31.2695 141.864 31.2328C145.513 29.6008 149.341 27.472 152.187 24.6176C152.259 24.5449 152.26 24.5449 152.334 24.4707C153.37 23.4222 154.109 22.2972 154.407 20.8304C154.386 20.0628 154.207 19.5096 153.802 18.8655C153.722 18.7211 153.643 18.5763 153.565 18.4309Z" fill="black"/>
<path d="M137.624 14.2212C137.969 14.5963 138.08 14.9961 138.228 15.4781C138.285 15.656 138.342 15.8337 138.4 16.0114C138.428 16.0982 138.456 16.185 138.485 16.2745C138.597 16.5963 138.734 16.903 138.88 17.2107C138.966 17.4347 139.001 17.6278 139.012 17.8674C138.763 18.2247 138.348 18.3444 137.957 18.498C137.887 18.5264 137.816 18.5548 137.744 18.5841C137.352 18.7415 136.958 18.8921 136.563 19.0395C135.968 19.2616 135.392 19.5072 134.818 19.779C134.715 19.8279 134.715 19.8279 134.61 19.8777C134.292 20.0096 134.292 20.0096 134.036 20.2263C133.745 20.3019 133.745 20.3019 133.399 20.303C132.888 19.9133 132.6 19.3951 132.278 18.8459C132.227 18.7597 132.175 18.6736 132.122 18.5848C131.595 17.6995 131.595 17.6995 131.516 17.253C131.502 17.1852 131.489 17.1173 131.474 17.0475C131.522 16.7014 131.74 16.5187 131.996 16.3037C132.225 16.1385 132.464 15.9945 132.709 15.8532C132.776 15.8135 132.844 15.7739 132.913 15.7331C136.515 13.6488 136.515 13.6488 137.624 14.2212ZM133.299 15.869C133.23 15.9068 133.161 15.9447 133.091 15.9838C132.692 16.2142 132.383 16.4276 132.153 16.8406C132.131 17.4005 132.377 17.8404 132.631 18.323C132.685 18.4321 132.685 18.4321 132.741 18.5434C133.082 19.2131 133.082 19.2131 133.686 19.62C134.187 19.6101 134.511 19.4204 134.93 19.175C135.605 18.7946 136.29 18.5128 137.022 18.2632C137.442 18.1178 137.805 17.9708 138.16 17.692C138.287 17.3368 138.216 16.9365 138.065 16.5962C138.003 16.4827 137.94 16.3697 137.876 16.2572C137.769 16.0468 137.705 15.8393 137.639 15.6127C137.505 15.1759 137.321 14.8813 136.957 14.5948C135.623 14.5968 134.436 15.2341 133.299 15.869Z" fill="black"/>
<path d="M136.957 14.5948C137.447 14.9987 137.627 15.4612 137.823 16.0472C137.895 16.2583 137.895 16.2583 138.029 16.5094C138.18 16.8584 138.22 17.1158 138.229 17.4984C138.017 17.8494 137.819 17.974 137.437 18.1033C136.492 18.441 135.587 18.8269 134.711 19.3178C134.366 19.5059 134.081 19.6151 133.686 19.62C133.159 19.3304 132.964 18.8654 132.703 18.349C132.616 18.1973 132.528 18.0458 132.441 17.8943C132.263 17.5705 132.169 17.3081 132.164 16.9319C132.277 17.1033 132.389 17.2751 132.496 17.4509C132.777 17.9239 132.777 17.9239 133.238 18.192C133.751 18.1745 134.078 18.0246 134.485 17.7292C135.009 17.3623 135.442 17.0882 136.069 16.9422C136.812 16.7444 136.812 16.7444 137.337 16.2164C137.384 15.7505 137.278 15.3574 137.096 14.9313C136.819 14.7407 136.624 14.7927 136.302 14.8385C135.897 14.923 135.524 15.0753 135.143 15.2359C135.059 15.2705 134.976 15.3052 134.889 15.3409C133.993 15.7212 133.129 16.1773 132.324 16.7274C132.647 16.2387 133.019 16.0117 133.532 15.7425C133.609 15.7015 133.685 15.6605 133.765 15.6182C135.93 14.4821 135.93 14.4821 136.957 14.5948Z" fill="black"/>
<path d="M131.637 17.9216C131.674 17.9898 131.711 18.0581 131.75 18.1284C132.081 18.7338 132.081 18.7338 132.477 19.2967C132.672 19.569 132.695 19.6909 132.719 20.0144C132.611 20.0682 132.611 20.0682 132.5 20.1232C130.514 21.1589 128.786 22.5981 127.224 24.1958C127.181 24.2398 127.138 24.2838 127.094 24.3291C126.859 24.5727 126.656 24.8131 126.48 25.1017C126.367 25.2849 126.367 25.2849 126.264 25.4228C126.204 25.4301 126.144 25.4373 126.082 25.4447C126.07 25.4978 126.057 25.551 126.044 25.6057C125.903 25.9268 125.707 26.1112 125.454 26.3541C125.394 26.3613 125.334 26.3686 125.272 26.376C125.265 26.3157 125.257 26.2555 125.25 26.1934C125.12 26.2548 125.12 26.2548 124.988 26.3175C124.952 26.0162 124.916 25.7149 124.878 25.4045C124.985 25.405 125.091 25.4056 125.201 25.4061C125.633 25.3488 125.81 25.1686 126.079 24.8376C126.294 24.5372 126.494 24.2282 126.695 23.9179C127.172 23.182 127.721 22.5537 128.336 21.9315C128.387 21.8792 128.438 21.827 128.491 21.7732C129.121 21.1368 129.779 20.5467 130.478 19.9889C130.575 19.912 130.575 19.912 130.673 19.8336C130.953 19.615 131.19 19.439 131.529 19.324C131.503 19.2712 131.478 19.2184 131.452 19.1639C131.419 19.0939 131.385 19.0239 131.351 18.9517C131.318 18.8826 131.285 18.8135 131.251 18.7423C131.167 18.5573 131.092 18.3718 131.022 18.1809C131.432 17.9462 131.432 17.9462 131.637 17.9216Z" fill="black"/>
<path d="M117.309 1.58424C117.369 1.57701 117.429 1.56979 117.491 1.56234C117.455 1.80981 117.418 2.05726 117.381 2.30463C117.355 2.48788 117.33 2.67144 117.309 2.85534C117.163 4.0442 116.759 5.25367 116.119 6.26628C116.126 6.32654 116.133 6.3868 116.141 6.44889C116.448 6.47302 116.756 6.49715 117.072 6.522C117.079 6.58227 117.087 6.64253 117.094 6.70462C117.006 6.73308 116.919 6.76155 116.828 6.79088C116.658 6.84759 116.658 6.84759 116.484 6.90544C116.371 6.94272 116.257 6.98 116.141 7.01841C115.845 7.10713 115.845 7.10713 115.694 7.33635C115.673 7.51476 115.673 7.51476 115.67 7.71549C115.541 9.14903 114.17 10.2509 113.202 11.2013C113.029 11.3724 112.856 11.5447 112.684 11.7171C112.139 12.2625 111.592 12.8053 111.031 13.3345C110.393 13.9369 109.823 14.5672 109.263 15.2429C108.892 15.6679 108.51 16.0826 108.121 16.4919C108.334 15.7374 109.024 15.1063 109.543 14.5395C109.732 14.3307 109.916 14.1172 110.1 13.9033C110.37 13.5914 110.647 13.2919 110.936 12.9978C112.027 11.8715 113.038 10.6212 113.901 9.31206C113.991 9.17823 113.991 9.17823 114.082 9.04171C115.4 7.04309 116.174 4.91933 116.931 2.65986C117.053 2.29972 117.18 1.94169 117.309 1.58424Z" fill="black"/>
<path d="M119.248 0.106335C119.758 0.217414 120.259 0.364016 120.761 0.508692C120.913 0.551383 121.066 0.593921 121.219 0.636303C121.498 0.714138 121.777 0.792826 122.056 0.87263C122.33 0.950477 122.604 1.02624 122.879 1.09891C122.805 1.24534 122.805 1.24534 122.73 1.39472C122.637 1.37171 122.637 1.37171 122.542 1.34823C122.041 1.2249 121.541 1.10233 121.041 0.980831C120.705 0.899244 120.37 0.81606 120.036 0.7269C119.074 0.477784 119.074 0.477784 118.12 0.652988C117.604 1.06905 117.388 1.58416 117.175 2.19666C117.143 2.2849 117.111 2.37314 117.078 2.46406C116.839 3.12571 116.619 3.79348 116.398 4.4612C115.771 6.34633 114.91 8.03283 113.725 9.62787C113.554 9.85857 113.392 10.0908 113.234 10.3303C112.697 11.1274 112.083 11.8676 111.433 12.5733C111.233 12.7939 111.033 13.015 110.832 13.2361C110.779 13.2952 110.726 13.3542 110.671 13.4151C110.241 13.8902 109.819 14.3706 109.401 14.8558C109.322 14.9462 109.242 15.0365 109.161 15.1297C107.785 16.7041 106.959 18.3603 106.276 20.3265C106.216 20.3338 106.156 20.341 106.094 20.3484C106.08 19.8532 106.161 19.4644 106.347 19.0038C106.373 18.9405 106.398 18.8771 106.424 18.8119C107.008 17.3897 107.944 16.1856 108.88 14.9822C108.932 14.915 108.984 14.8477 109.038 14.7785C109.394 14.325 109.77 13.8945 110.157 13.468C110.292 13.3131 110.428 13.158 110.562 13.0024C110.804 12.7241 111.046 12.4473 111.293 12.1734C111.401 12.0523 111.51 11.9312 111.618 11.81C111.709 11.7084 111.709 11.7084 111.802 11.6048C112.681 10.6119 113.484 9.58579 114.166 8.4465C114.229 8.34582 114.292 8.24514 114.357 8.1414C115.326 6.57094 115.898 4.85592 116.498 3.11791C117.632 -0.162477 117.632 -0.162476 119.248 0.106335Z" fill="black"/>
<path d="M128.363 23.6882C128.395 23.9621 128.395 23.9621 128.231 24.1961C128.155 24.2874 128.079 24.3787 128.001 24.4727C127.704 24.8386 127.432 25.2038 127.186 25.6071C126.427 26.8335 125.522 27.9625 124.636 29.0982C124.595 29.151 124.554 29.2038 124.511 29.2583C124.046 29.8555 123.574 30.4403 123.059 30.9959C122.972 31.0919 122.885 31.188 122.798 31.2842C122.223 31.9135 121.628 32.5133 121.005 33.0957C120.941 33.0728 120.878 33.0499 120.812 33.0263C121.061 32.4585 121.428 32.0085 121.814 31.5279C122.218 31.0238 122.606 30.5194 122.965 29.9818C123.193 29.6488 123.446 29.3356 123.698 29.0201C124.411 28.128 124.411 28.128 124.996 27.1502C125.056 27.143 125.116 27.1358 125.178 27.1283C125.194 27.0748 125.21 27.0212 125.227 26.9661C125.444 26.4145 125.794 26.05 126.217 25.6543C126.274 25.6002 126.332 25.546 126.39 25.4903C127.038 24.8792 127.7 24.2827 128.363 23.6882Z" fill="black"/>
<path d="M141.607 14.1277C141.667 14.2363 141.726 14.3454 141.785 14.4547C141.818 14.5154 141.851 14.5762 141.884 14.6387C142.017 14.9357 142.012 15.1596 141.953 15.4754C141.629 15.805 141.288 15.8823 140.846 15.9503C140.782 15.9608 140.718 15.9712 140.652 15.9819C140.524 16.0026 140.396 16.0227 140.267 16.0422C140.107 16.0674 139.948 16.0974 139.788 16.1279C139.383 16.1976 139.17 16.2341 138.798 16.0406C138.15 15.3018 138.15 15.3018 138.093 14.8287C139.26 14.4569 140.387 14.2393 141.607 14.1277Z" fill="black"/>
<path d="M141.607 14.1277C142.094 14.4464 142.265 14.7709 142.47 15.309C142.512 15.4119 142.512 15.4119 142.555 15.5169C142.721 15.9346 142.813 16.3091 142.846 16.7574C142.747 16.7728 142.747 16.7728 142.646 16.7885C141.383 16.9854 140.122 17.1851 138.866 17.4218C138.511 16.7059 138.277 16.0768 138.239 15.2742C138.384 15.4447 138.527 15.6166 138.67 15.7897C138.855 16.0378 138.855 16.0378 139.076 16.0997C139.667 16.0674 140.257 15.9543 140.84 15.8526C140.902 15.8423 140.964 15.832 141.028 15.8214C141.485 15.7392 141.485 15.7392 141.862 15.4863C141.919 15.065 141.906 14.8298 141.651 14.4929C141.636 14.3724 141.622 14.2519 141.607 14.1277Z" fill="black"/>
<path d="M155.764 19.8335C155.794 19.8299 155.824 19.8263 155.855 19.8225C156.053 20.7885 155.785 21.6441 155.256 22.4625C154.668 23.2921 154.027 24.0398 153.311 24.7601C153.235 24.8414 153.16 24.9226 153.082 25.0063C151.933 26.2047 150.51 27.115 149.075 27.9332C148.883 28.0435 148.692 28.1547 148.5 28.2668C146.57 29.3987 144.608 30.4151 142.568 31.3333C142.458 31.3829 142.348 31.4325 142.235 31.4836C141.942 31.615 141.647 31.7448 141.353 31.8733C141.269 31.9101 141.185 31.9468 141.099 31.9847C140.701 32.1538 140.354 32.2803 139.916 32.3009C139.985 32.1074 139.985 32.1074 140.138 32.0346C140.24 31.9994 140.24 31.9994 140.345 31.9635C140.424 31.9353 140.503 31.9071 140.584 31.8781C140.717 31.831 140.717 31.831 140.852 31.7831C143.329 30.8647 145.653 29.6261 147.922 28.2805C148.076 28.1903 148.23 28.1002 148.384 28.0102C150.946 26.5062 154.661 24.2749 155.565 21.2469C155.598 20.9783 155.614 20.7192 155.614 20.4485C155.626 20.2167 155.675 20.0465 155.764 19.8335Z" fill="black"/>
<path d="M141.268 13.6127C141.335 13.6657 141.403 13.7188 141.472 13.7734C141.574 13.7859 141.677 13.7985 141.782 13.8113C142.062 13.8879 142.138 13.965 142.308 14.2071C142.466 14.5012 142.606 14.7969 142.739 15.1029C142.771 15.1757 142.802 15.2484 142.835 15.3233C143.024 15.8095 143.087 16.2979 143.129 16.8158C143.317 16.8544 143.504 16.893 143.697 16.9327C143.663 17.0286 143.663 17.0286 143.628 17.1263C142.157 17.3034 140.687 17.4804 139.172 17.6629C139.156 17.787 139.14 17.9111 139.124 18.039C139.094 18.0426 139.064 18.0463 139.034 18.05C139.008 17.8391 138.983 17.6281 138.957 17.4108C140.23 17.0303 141.528 16.8969 142.846 16.7574C142.672 16.1604 142.48 15.5858 142.222 15.0205C142.195 14.9592 142.168 14.8979 142.14 14.8348C141.98 14.4801 141.98 14.4801 141.709 14.2081C141.525 14.2014 141.525 14.2014 141.318 14.2305C141.24 14.2396 141.161 14.2487 141.08 14.2581C140.954 14.2745 140.954 14.2745 140.825 14.2913C140.696 14.3073 140.696 14.3073 140.565 14.3236C139.936 14.4072 139.338 14.5355 138.727 14.7117C138.483 14.7777 138.253 14.817 138.002 14.8396C137.994 14.7794 137.987 14.7191 137.98 14.657C138.334 14.5476 138.689 14.439 139.043 14.3311C139.164 14.2944 139.284 14.2574 139.404 14.2203C140.633 13.8405 140.633 13.8405 141.29 13.7953C141.283 13.7351 141.276 13.6748 141.268 13.6127Z" fill="black"/>
<path d="M122.901 1.28152C123.533 1.24974 124.083 1.42986 124.683 1.61697C124.789 1.65012 124.896 1.68327 125.006 1.71743C127.016 2.3569 128.825 3.35917 130.58 4.52524C130.688 4.59627 130.797 4.66728 130.905 4.73829C133.293 6.31235 133.293 6.31235 134.227 7.23545C134.175 7.30293 134.122 7.37042 134.067 7.43996C134.018 7.39995 133.968 7.35994 133.917 7.31872C133.505 6.98898 133.086 6.68002 132.648 6.38572C132.444 6.24291 132.252 6.09066 132.058 5.9335C131.659 5.61351 131.236 5.34354 130.802 5.07306C130.568 4.92401 130.346 4.76752 130.122 4.6035C127.973 3.094 125.45 2.11156 122.923 1.46413C122.916 1.40387 122.908 1.34361 122.901 1.28152Z" fill="black"/>
<path d="M121.776 17.2562C121.883 17.3809 121.883 17.3809 121.991 17.5082C122.04 17.4106 122.09 17.313 122.14 17.2124C122.165 17.3007 122.19 17.389 122.216 17.48C123.016 21.1899 123.016 21.1899 124.837 24.2979C124.873 24.2375 124.908 24.1771 124.944 24.1149C125.336 23.4614 125.775 22.8653 126.255 22.2746C126.35 22.309 126.35 22.309 126.448 22.344C126.386 22.42 126.323 22.4959 126.259 22.5741C125.693 23.2747 125.119 23.9964 124.812 24.8566C124.846 25.0728 124.887 25.288 124.93 25.5024C124.954 25.6183 124.977 25.7342 125.001 25.8536C125.029 25.9874 125.029 25.9874 125.057 26.124C124.997 26.1312 124.937 26.1384 124.875 26.1459C124.66 25.8047 124.607 25.5453 124.582 25.1449C124.529 24.6443 124.419 24.3124 124.16 23.8858C122.961 21.8859 122.312 19.5106 121.776 17.2562Z" fill="black"/>
<path d="M119.056 34.5346C119.119 34.5575 119.183 34.5804 119.249 34.604C119.151 34.7189 119.151 34.7189 119.052 34.8361C118.867 35.0902 118.799 35.1878 118.802 35.4914C118.892 35.4806 118.982 35.4697 119.075 35.4586C119.102 35.5124 119.129 35.5662 119.157 35.6216C119.348 35.8621 119.492 35.8791 119.79 35.9398C119.876 35.9583 119.962 35.9768 120.051 35.9959C120.148 36.0127 120.245 36.0294 120.345 36.0467C120.453 36.0656 120.562 36.0846 120.673 36.1041C121.243 36.1726 121.815 36.1237 122.386 36.0904C122.446 36.087 122.506 36.0837 122.569 36.0802C124.021 35.9981 125.46 35.8469 126.889 35.5699C127.743 35.4081 128.609 35.3216 129.473 35.2256C129.45 35.2895 129.427 35.3534 129.404 35.4192C129.151 35.4929 128.905 35.5539 128.648 35.6086C128.57 35.6255 128.493 35.6425 128.413 35.66C128.175 35.7113 127.936 35.7609 127.698 35.8098C127.633 35.8232 127.569 35.8365 127.503 35.8503C121.17 37.1421 121.17 37.1421 119.14 36.0064C118.85 35.7886 118.746 35.6718 118.638 35.3259C118.662 34.9563 118.81 34.8014 119.056 34.5346Z" fill="black"/>
<path d="M134.533 7.47651C134.9 7.57892 135.147 7.77521 135.444 8.01019C135.494 8.04946 135.543 8.08874 135.595 8.1292C135.7 8.2124 135.805 8.29584 135.91 8.37951C136.068 8.50554 136.226 8.63076 136.385 8.75586C136.88 9.14758 137.366 9.54517 137.831 9.97348C138.078 10.1998 138.335 10.4137 138.591 10.6294C139.063 11.0292 139.514 11.4441 139.955 11.8777C140.137 12.055 140.322 12.2261 140.511 12.3956C140.739 12.6063 140.948 12.8082 141.111 13.0758C141.095 13.2764 141.095 13.2764 141.064 13.452C140.907 13.3016 140.75 13.1512 140.593 13.0007C140.458 12.8718 140.324 12.7429 140.189 12.6141C139.838 12.2786 139.491 11.9405 139.146 11.5988C138.387 10.8643 137.562 10.1769 136.72 9.53974C136.514 9.3685 136.514 9.3685 136.492 9.18589C136.436 9.16844 136.38 9.15099 136.322 9.13301C135.941 8.98135 135.641 8.71086 135.32 8.45856C135.214 8.37785 135.214 8.37785 135.106 8.29552C135.038 8.24294 134.971 8.19036 134.902 8.13619C134.841 8.08849 134.779 8.04079 134.716 7.99164C134.577 7.84174 134.577 7.84174 134.533 7.47651Z" fill="black"/>
<path d="M131.243 16.9501C131.303 16.9429 131.363 16.9356 131.425 16.9282C131.451 16.9983 131.476 17.0685 131.502 17.1407C131.799 17.9054 132.174 18.5658 132.627 19.2475C132.692 19.3471 132.692 19.3471 132.759 19.4487C132.818 19.5369 132.818 19.5369 132.879 19.6269C132.97 19.7989 132.97 19.7989 133.014 20.1642C132.891 20.2245 132.891 20.2245 132.767 20.2861C130.732 21.3087 128.965 22.5864 127.385 24.2349C127.328 24.2946 127.27 24.3544 127.21 24.416C127.134 24.496 127.134 24.496 127.057 24.5776C126.915 24.6961 126.915 24.6961 126.642 24.729C127.153 24.1237 127.695 23.5758 128.286 23.0491C128.332 23.0074 128.379 22.9657 128.427 22.9227C129.724 21.769 131.1 20.6715 132.719 20.0144C132.55 19.6253 132.385 19.2561 132.12 18.9228C131.879 18.5926 131.767 18.3071 131.637 17.9216C131.442 18.049 131.248 18.1766 131.054 18.3044C130.999 18.3404 130.944 18.3763 130.888 18.4134C130.642 18.5753 130.413 18.7375 130.189 18.9295C130.096 18.9102 130.002 18.8909 129.906 18.8711C130.363 18.4626 130.823 18.0992 131.342 17.7718C131.309 17.5007 131.277 17.2295 131.243 16.9501Z" fill="black"/>
<path d="M139.825 32.3119C139.803 32.3758 139.78 32.4397 139.756 32.5055C139.513 32.6095 139.513 32.6095 139.182 32.7215C139.093 32.7519 139.093 32.7519 139.003 32.7829C138.808 32.8492 138.613 32.9143 138.418 32.9792C138.282 33.0249 138.146 33.0705 138.011 33.1161C137.618 33.2476 137.225 33.3772 136.832 33.506C136.738 33.5366 136.645 33.5672 136.549 33.5988C135.457 33.9526 134.349 34.2448 133.238 34.5318C133.087 34.571 132.935 34.6105 132.784 34.6503C131.775 34.9145 130.784 35.0951 129.746 35.1928C130.037 34.9427 130.289 34.8906 130.652 34.8122C130.788 34.7815 130.923 34.7509 131.059 34.7202C131.13 34.7044 131.201 34.6886 131.274 34.6724C132.577 34.3818 133.86 34.0517 135.137 33.6589C135.425 33.572 135.714 33.4918 136.003 33.412C136.855 33.1767 137.693 32.9048 138.529 32.6185C138.962 32.4723 139.365 32.3377 139.825 32.3119Z" fill="black"/>
<path d="M149.449 27.1703C149.46 27.2607 149.471 27.3511 149.482 27.4442C147.302 28.7624 145.119 30.0274 142.797 31.08C142.736 31.1075 142.676 31.135 142.613 31.1634C142.44 31.2418 142.267 31.3194 142.093 31.3966C141.993 31.4411 141.894 31.4855 141.791 31.5313C141.489 31.6512 141.188 31.7372 140.873 31.8153C141.046 31.5938 141.138 31.549 141.39 31.4404C141.502 31.3911 141.502 31.3911 141.616 31.3408C141.698 31.3052 141.78 31.2695 141.864 31.2328C144.168 30.2021 146.369 28.9379 148.471 27.5401C148.557 27.4836 148.643 27.427 148.732 27.3687C148.809 27.3177 148.886 27.2668 148.965 27.2142C149.165 27.1118 149.165 27.1118 149.449 27.1703Z" fill="black"/>
<path d="M125.603 26.0583C125.642 26.3835 125.582 26.4694 125.42 26.746C125.379 26.8172 125.339 26.8884 125.297 26.9617C125.257 27.0167 125.218 27.0717 125.178 27.1283C125.118 27.1356 125.058 27.1428 124.996 27.1502C124.978 27.2069 124.96 27.2636 124.942 27.3219C124.856 27.5411 124.757 27.6989 124.618 27.8875C124.57 27.9533 124.521 28.0192 124.472 28.087C124.42 28.1564 124.368 28.2259 124.315 28.2974C124.262 28.3695 124.209 28.4415 124.154 28.5157C123.756 29.0518 123.348 29.5787 122.931 30.0995C122.763 30.3194 122.607 30.5387 122.453 30.7685C122.132 31.2463 121.782 31.6998 121.428 32.1533C121.365 32.2355 121.301 32.3178 121.236 32.4025C121.144 32.5205 121.144 32.5205 121.05 32.6409C120.995 32.7117 120.94 32.7825 120.883 32.8554C120.726 33.032 120.578 33.1385 120.379 33.2637C120.248 33.4179 120.121 33.5764 119.998 33.738C119.934 33.8214 119.871 33.9047 119.805 33.9906C119.757 34.0545 119.709 34.1183 119.659 34.184C119.596 34.1611 119.532 34.1382 119.467 34.1146C119.658 33.8674 119.849 33.6206 120.041 33.3739C120.121 33.2695 120.121 33.2695 120.204 33.1629C120.419 32.8864 120.628 32.6189 120.876 32.3716C121.11 32.126 121.284 31.8609 121.471 31.5788C121.753 31.1691 122.066 30.784 122.376 30.395C122.505 30.2323 122.634 30.0694 122.763 29.9062C122.82 29.8353 122.876 29.7643 122.934 29.6912C123.073 29.5203 123.073 29.5203 123.134 29.3195C123.194 29.3123 123.254 29.3051 123.316 29.2976C123.333 29.242 123.35 29.1864 123.367 29.1291C123.465 28.8836 123.589 28.7159 123.754 28.51C123.814 28.4351 123.873 28.3602 123.935 28.283C123.997 28.2056 124.059 28.1282 124.123 28.0484C124.812 27.3087 124.812 27.3087 125.115 26.4123C125.099 26.3473 125.084 26.2823 125.068 26.2153C125.128 26.2081 125.188 26.2008 125.25 26.1934C125.257 26.2536 125.264 26.3139 125.272 26.376C125.381 26.2711 125.49 26.1663 125.603 26.0583Z" fill="black"/>
<path d="M129.928 19.0537C130.023 19.088 130.023 19.088 130.12 19.1231C129.793 19.4379 129.465 19.7524 129.136 20.0654C126.756 22.3229 126.756 22.3229 124.925 25.0283C124.837 24.8891 124.837 24.8891 124.79 24.674C124.889 24.4544 124.988 24.2693 125.115 24.0676C125.151 24.0101 125.186 23.9526 125.223 23.8933C125.826 22.9309 126.555 22.1273 127.364 21.3397C127.503 21.2039 127.639 21.0663 127.774 20.9277C128.263 20.4308 128.771 19.9693 129.31 19.5275C129.368 19.4791 129.427 19.4307 129.487 19.3808C129.629 19.2661 129.778 19.1591 129.928 19.0537Z" fill="black"/>
<path d="M130.326 21.5993C130.389 21.6222 130.453 21.6451 130.519 21.6687C130.448 21.7376 130.377 21.8066 130.304 21.8776C130.209 21.9708 130.113 22.0641 130.018 22.1574C129.969 22.2053 129.92 22.2533 129.869 22.3028C129.606 22.5619 129.35 22.824 129.105 23.1009C128.875 23.3486 128.875 23.3486 128.693 23.3705C128.68 23.4295 128.666 23.4884 128.651 23.5492C128.555 23.7576 128.555 23.7576 128.369 23.856C128.047 24.0375 127.806 24.2724 127.541 24.5281C127.487 24.5792 127.433 24.6303 127.378 24.683C126.848 25.1889 126.326 25.7025 125.806 26.219C125.763 25.8548 125.876 25.7415 126.082 25.4447C126.364 25.1131 126.676 24.8095 126.984 24.5025C127.042 24.4441 127.101 24.3856 127.161 24.3254C127.93 23.5566 128.717 22.8245 129.574 22.153C129.646 22.0959 129.718 22.0388 129.793 21.9799C130.175 21.6869 130.175 21.6869 130.326 21.5993Z" fill="black"/>
<path d="M123.059 20.2511C123.366 20.3616 123.43 20.662 123.563 20.943C123.858 21.5433 124.207 22.0586 124.632 22.5743C125.048 23.0821 125.048 23.0821 125.091 23.341C125.024 23.5474 125.024 23.5474 124.916 23.7557C124.881 23.8254 124.846 23.8951 124.81 23.9669C124.781 24.0195 124.753 24.072 124.725 24.1262C124.489 23.9409 124.426 23.7998 124.299 23.5302C124.257 23.4416 124.215 23.353 124.171 23.2618C124.127 23.1674 124.084 23.073 124.038 22.9757C123.994 22.8803 123.949 22.7848 123.903 22.6865C123.128 21.0105 123.128 21.0105 123.059 20.2511Z" fill="black"/>
<path d="M151.375 17.861C152.658 17.7279 154.1 18.1086 155.109 18.9042C155.547 19.283 155.741 19.5359 155.804 20.1238C155.813 20.2062 155.823 20.2886 155.832 20.3734C155.838 20.4363 155.845 20.4992 155.852 20.5639C155.729 20.3784 155.608 20.1923 155.49 20.004C154.869 19.0624 154.101 18.5422 152.998 18.314C152.098 18.1882 151.219 18.1984 150.316 18.2663C150.312 18.2362 150.309 18.206 150.305 18.175C150.376 18.1609 150.446 18.1468 150.519 18.1323C150.61 18.1135 150.701 18.0948 150.795 18.0755C150.886 18.057 150.977 18.0386 151.07 18.0195C151.292 17.9884 151.292 17.9884 151.375 17.861Z" fill="black"/>
<path d="M136.957 14.5948C137.447 14.9987 137.627 15.4612 137.823 16.0472C137.895 16.2583 137.895 16.2583 138.029 16.5094C138.174 16.8438 138.198 17.1359 138.229 17.4984C138.144 17.5545 138.144 17.5545 138.058 17.6116C138.034 17.5382 138.009 17.4647 137.984 17.389C137.78 16.7861 137.57 16.1862 137.348 15.5899C137.326 15.5286 137.303 15.4672 137.28 15.4041C137.149 15.0518 137.149 15.0518 136.888 14.7884C136.251 14.8189 135.728 14.9893 135.143 15.2359C135.059 15.2705 134.976 15.3052 134.889 15.3409C133.993 15.7212 133.129 16.1773 132.324 16.7274C132.647 16.2387 133.019 16.0117 133.532 15.7425C133.609 15.7015 133.685 15.6605 133.765 15.6182C135.93 14.4821 135.93 14.4821 136.957 14.5948Z" fill="black"/>
<path d="M134.533 7.47651C134.906 7.57837 135.173 7.79462 135.469 8.03317C135.521 8.074 135.572 8.11482 135.625 8.15689C135.789 8.28681 135.952 8.41744 136.115 8.5481C136.226 8.63655 136.337 8.72496 136.449 8.81332C136.721 9.02952 136.992 9.24634 137.263 9.46351C137.218 9.59126 137.172 9.71902 137.125 9.85064C137.023 9.77472 136.922 9.69802 136.821 9.62098C136.764 9.57835 136.708 9.53572 136.65 9.4918C136.514 9.3685 136.514 9.3685 136.492 9.18589C136.436 9.16844 136.38 9.15099 136.322 9.13301C135.941 8.98135 135.641 8.71086 135.32 8.45856C135.214 8.37785 135.214 8.37785 135.106 8.29552C135.038 8.24294 134.971 8.19036 134.902 8.13619C134.841 8.08849 134.779 8.04079 134.716 7.99164C134.577 7.84174 134.577 7.84174 134.533 7.47651Z" fill="black"/>
<path d="M136.695 14.719C136.471 14.912 136.338 14.9907 136.072 15.0962C135.997 15.1263 135.923 15.1564 135.846 15.1875C135.766 15.2195 135.687 15.2515 135.604 15.2846C134.971 15.5458 134.352 15.8227 133.747 16.145C133.686 16.1772 133.624 16.2095 133.561 16.2427C133.123 16.4809 132.746 16.7685 132.368 17.0926C132.353 16.9721 132.339 16.8516 132.324 16.7274C132.674 16.3609 133.087 16.1282 133.532 15.8929C133.599 15.8573 133.667 15.8216 133.736 15.7848C134.24 15.5232 134.753 15.2926 135.28 15.0805C135.382 15.0388 135.382 15.0388 135.487 14.9962C135.894 14.8381 136.26 14.7521 136.695 14.719Z" fill="black"/>
<path d="M140.293 17.1418C140.358 17.1336 140.423 17.1255 140.491 17.117C140.627 17.1001 140.764 17.0834 140.901 17.067C141.11 17.0415 141.32 17.0146 141.529 16.9877C141.663 16.9713 141.796 16.9551 141.929 16.939C141.992 16.9308 142.055 16.9226 142.119 16.9141C142.56 16.8631 142.56 16.8631 142.788 17.0422C142.39 17.1217 141.992 17.2002 141.593 17.2786C141.482 17.3009 141.371 17.3231 141.256 17.346C140.563 17.4819 139.874 17.5902 139.172 17.6629C139.156 17.787 139.14 17.9111 139.124 18.039C139.094 18.0426 139.064 18.0463 139.034 18.05C139.008 17.8391 138.983 17.6281 138.957 17.4108C139.4 17.2827 139.835 17.1977 140.293 17.1418Z" fill="black"/>
<path d="M131.243 16.9501C131.303 16.9429 131.363 16.9356 131.425 16.9282C131.465 17.038 131.465 17.038 131.507 17.15C131.783 17.8587 132.107 18.4557 132.554 19.0691C132.736 19.327 132.844 19.4888 132.854 19.8096C132.839 19.8736 132.825 19.9376 132.81 20.0035C132.78 20.0071 132.75 20.0107 132.719 20.0144C132.697 19.9644 132.675 19.9143 132.653 19.8628C132.501 19.5243 132.352 19.2141 132.12 18.9228C131.879 18.5926 131.767 18.3071 131.637 17.9216C131.442 18.049 131.248 18.1766 131.054 18.3044C130.999 18.3404 130.944 18.3763 130.888 18.4134C130.642 18.5753 130.413 18.7375 130.189 18.9295C130.096 18.9102 130.002 18.8909 129.906 18.8711C130.363 18.4626 130.823 18.0992 131.342 17.7718C131.309 17.5007 131.277 17.2295 131.243 16.9501Z" fill="black"/>
<path d="M113.8 9.2317C113.838 9.55394 113.801 9.58719 113.616 9.83674C113.569 9.90044 113.522 9.96413 113.474 10.0298C113.423 10.0968 113.372 10.1639 113.32 10.2331C113.244 10.3358 113.244 10.3358 113.166 10.4406C113.02 10.6373 112.872 10.833 112.724 11.0285C112.657 11.1168 112.591 11.205 112.522 11.2959C112.257 11.6407 111.987 11.9649 111.673 12.2665C111.61 12.2436 111.546 12.2207 111.48 12.1971C112.018 11.4503 112.557 10.7049 113.122 9.97898C113.181 9.90289 113.181 9.90289 113.242 9.82525C113.417 9.60243 113.584 9.41708 113.8 9.2317Z" fill="black"/>
<path d="M133.863 34.1412C133.871 34.2015 133.878 34.2617 133.885 34.3238C131.108 35.1006 131.108 35.1006 129.746 35.1928C130.047 34.9336 130.328 34.8782 130.705 34.7928C130.775 34.7765 130.845 34.7601 130.917 34.7432C131.065 34.7087 131.213 34.6746 131.361 34.6408C131.585 34.5894 131.81 34.5368 132.035 34.484C132.179 34.4506 132.323 34.4172 132.467 34.3839C132.567 34.3606 132.567 34.3606 132.669 34.3368C133.066 34.2464 133.458 34.1831 133.863 34.1412Z" fill="black"/>
<path d="M153.929 18.3871C154.348 18.3827 154.569 18.5078 154.907 18.7499C155.035 18.8396 155.035 18.8396 155.166 18.9311C155.569 19.2793 155.775 19.6055 155.818 20.1396C155.825 20.2197 155.832 20.2998 155.839 20.3823C155.843 20.4422 155.847 20.5022 155.852 20.5639C155.73 20.3796 155.61 20.1947 155.493 20.0068C155.119 19.4338 154.727 19.0769 154.15 18.7103C154.084 18.6639 154.019 18.6175 153.951 18.5697C153.944 18.5094 153.936 18.4492 153.929 18.3871Z" fill="black"/>
<path d="M126.279 24.7728C126.406 24.8186 126.533 24.8644 126.664 24.9116C126.535 25.0854 126.402 25.2557 126.264 25.4228C126.204 25.4301 126.144 25.4373 126.082 25.4447C126.07 25.4978 126.057 25.551 126.044 25.6057C125.903 25.9268 125.707 26.1112 125.454 26.3541C125.394 26.3613 125.334 26.3686 125.272 26.376C125.265 26.3157 125.257 26.2555 125.25 26.1934C125.163 26.2344 125.077 26.2753 124.988 26.3175C124.952 26.0162 124.916 25.7149 124.878 25.4045C125.35 25.5311 125.35 25.5311 125.832 25.6602C125.861 25.5707 125.89 25.4812 125.92 25.389C126.019 25.1308 126.096 24.9725 126.279 24.7728Z" fill="black"/>
<path d="M129.473 35.2256C129.45 35.2895 129.427 35.3534 129.404 35.4192C129.136 35.4964 128.875 35.5615 128.603 35.6197C128.487 35.6455 128.487 35.6455 128.368 35.6719C127.843 35.7858 127.324 35.8726 126.788 35.9193C126.784 35.8892 126.781 35.8591 126.777 35.828C126.503 35.8304 126.23 35.8328 125.948 35.8353C125.944 35.8051 125.94 35.775 125.937 35.744C127.109 35.5132 128.285 35.3576 129.473 35.2256Z" fill="black"/>
<path d="M132.164 16.9319C132.606 17.5985 133.005 18.2802 133.354 19.0008C133.432 19.1832 133.432 19.1832 133.551 19.2658C133.751 19.2484 133.95 19.2255 134.149 19.1996C134.258 19.1857 134.367 19.1717 134.479 19.1574C134.605 19.1406 134.605 19.1406 134.734 19.1234C134.665 19.317 134.665 19.317 134.478 19.4436C134.193 19.5718 134 19.6281 133.686 19.62C133.159 19.3304 132.964 18.8654 132.703 18.349C132.616 18.1973 132.528 18.0458 132.441 17.8943C132.263 17.5705 132.169 17.3081 132.164 16.9319Z" fill="black"/>
<path d="M111.091 12.7997C111.158 12.9751 111.158 12.9751 111.226 13.154C111.159 13.2182 111.092 13.2824 111.023 13.3485C110.398 13.9521 109.824 14.5782 109.263 15.2429C108.891 15.667 108.51 16.0826 108.121 16.4919C108.334 15.7378 109.023 15.1075 109.542 14.5407C109.738 14.3246 109.929 14.1042 110.12 13.8834C110.439 13.5168 110.762 13.1562 111.091 12.7997Z" fill="black"/>
<path d="M125.603 26.0583C125.642 26.3835 125.582 26.4694 125.42 26.746C125.379 26.8172 125.339 26.8884 125.297 26.9617C125.257 27.0167 125.218 27.0717 125.178 27.1283C125.118 27.1356 125.058 27.1428 124.996 27.1502C124.979 27.2045 124.963 27.2588 124.946 27.3148C124.844 27.5712 124.712 27.7753 124.556 28.0021C124.476 28.1195 124.476 28.1195 124.395 28.2393C124.236 28.4379 124.102 28.5437 123.887 28.6731C123.749 28.8326 123.749 28.8326 123.647 28.9799C123.584 28.957 123.52 28.9341 123.454 28.9105C123.494 28.8605 123.533 28.8104 123.574 28.7589C123.755 28.5303 123.935 28.3015 124.115 28.0726C124.177 27.9939 124.239 27.9152 124.303 27.834C124.881 27.1915 124.881 27.1915 125.115 26.4123C125.099 26.3473 125.084 26.2823 125.068 26.2153C125.128 26.2081 125.188 26.2008 125.25 26.1934C125.257 26.2536 125.264 26.3139 125.272 26.376C125.381 26.2711 125.49 26.1663 125.603 26.0583Z" fill="black"/>
<path d="M144.517 29.8945C144.581 29.9174 144.644 29.9403 144.71 29.9639C144.717 30.0242 144.725 30.0844 144.732 30.1465C144.377 30.3165 144.022 30.486 143.666 30.6553C143.546 30.7127 143.425 30.7702 143.305 30.8279C141.261 31.8062 141.261 31.8062 140.862 31.724C140.926 31.6939 140.991 31.6637 141.058 31.6327C142.703 30.8684 142.703 30.8684 144.297 30.0042C144.37 29.968 144.442 29.9318 144.517 29.8945Z" fill="black"/>
<path d="M122.99 20.4446C123.18 20.6671 123.249 20.7758 123.342 21.0388C123.365 21.1044 123.389 21.1701 123.413 21.2377C123.437 21.3059 123.461 21.3742 123.485 21.4445C123.533 21.5794 123.581 21.7144 123.629 21.8494C123.65 21.9091 123.671 21.9688 123.693 22.0304C123.756 22.2077 123.823 22.3836 123.89 22.5593C123.83 22.5666 123.77 22.5738 123.708 22.5812C123.693 22.7054 123.677 22.8295 123.661 22.9574C123.553 22.7103 123.447 22.4626 123.341 22.2144C123.296 22.1111 123.296 22.1111 123.25 22.0056C123.042 21.5145 122.945 21.08 122.91 20.5469C122.937 20.5132 122.963 20.4794 122.99 20.4446Z" fill="black"/>
<path d="M120.549 36.2074C120.815 36.1859 121.082 36.1655 121.349 36.1458C121.462 36.1365 121.462 36.1365 121.577 36.127C121.65 36.1218 121.723 36.1166 121.798 36.1112C121.866 36.106 121.933 36.1009 122.002 36.0955C122.22 36.1023 122.382 36.1568 122.582 36.2404C122.586 36.2705 122.59 36.3007 122.593 36.3317C122.378 36.3627 122.162 36.3923 121.947 36.4211C121.886 36.43 121.826 36.4388 121.764 36.4479C121.369 36.4993 121.044 36.4938 120.662 36.379C120.624 36.3224 120.587 36.2658 120.549 36.2074Z" fill="black"/>
<path d="M132.777 19.7295C132.84 19.7524 132.904 19.7753 132.97 19.7989C132.984 19.9195 132.999 20.04 133.014 20.1642C132.795 20.2796 132.576 20.3946 132.357 20.5095C132.296 20.5418 132.235 20.5741 132.172 20.6074C131.791 20.807 131.408 20.9849 131.01 21.1465C131.358 20.5594 131.93 20.3086 132.537 20.0363C132.627 20.0255 132.717 20.0146 132.81 20.0035C132.799 19.9131 132.788 19.8227 132.777 19.7295Z" fill="black"/>
<path d="M106.704 18.5151C106.828 18.7781 106.828 18.7781 106.754 19.0442C106.715 19.1454 106.677 19.2467 106.637 19.351C106.58 19.5024 106.58 19.5024 106.522 19.6568C106.486 19.7501 106.451 19.8433 106.414 19.9394C106.367 20.0683 106.321 20.1973 106.276 20.3265C106.216 20.3338 106.156 20.341 106.094 20.3484C106.062 19.7631 106.202 19.2598 106.453 18.7305C106.536 18.6594 106.619 18.5883 106.704 18.5151Z" fill="black"/>
<path d="M147.649 17.5685C148.164 17.4854 148.63 17.5056 149.147 17.5618C149.222 17.5689 149.297 17.576 149.374 17.5833C149.72 17.6192 149.945 17.6489 150.261 17.8098C149.383 17.872 148.544 17.8366 147.671 17.7511C147.663 17.6909 147.656 17.6306 147.649 17.5685Z" fill="black"/>
<path d="M121.085 0.75912C121.51 0.752979 121.886 0.834448 122.295 0.943417C122.405 0.972346 122.515 1.00127 122.628 1.03108C122.752 1.06465 122.752 1.06465 122.879 1.09891C122.805 1.24534 122.805 1.24534 122.73 1.39472C122.481 1.3366 122.231 1.27775 121.982 1.21845C121.911 1.20202 121.84 1.1856 121.768 1.16867C121.232 1.04029 121.232 1.04029 121.005 0.861376C121.031 0.827631 121.058 0.793887 121.085 0.75912Z" fill="black"/>
<path d="M155.764 19.8335C155.794 19.8299 155.824 19.8263 155.855 19.8225C156.054 20.7915 155.777 21.6298 155.261 22.4571C155.217 22.5233 155.217 22.5233 155.173 22.5909C155.132 22.5041 155.091 22.4173 155.049 22.3279C155.13 22.1249 155.13 22.1249 155.256 21.8976C155.495 21.4651 155.644 21.0853 155.623 20.5856C155.625 20.2804 155.638 20.1033 155.764 19.8335Z" fill="black"/>
<path d="M124.036 28.3773C124.069 28.6512 124.069 28.6512 123.955 28.8325C123.902 28.8996 123.848 28.9667 123.792 29.0359C123.734 29.1088 123.677 29.1817 123.617 29.2569C123.556 29.3326 123.494 29.4084 123.431 29.4864C123.34 29.6016 123.34 29.6016 123.246 29.7191C123.094 29.9091 122.942 30.0984 122.789 30.2873C122.696 30.268 122.602 30.2487 122.506 30.2289C122.545 30.1794 122.585 30.13 122.626 30.0791C122.677 30.0144 122.728 29.9497 122.781 29.8831C122.832 29.8189 122.884 29.7547 122.936 29.6886C123.074 29.5198 123.074 29.5198 123.134 29.3195C123.194 29.3123 123.254 29.3051 123.316 29.2976C123.335 29.2036 123.355 29.1096 123.374 29.0127C123.512 28.9 123.653 28.7906 123.796 28.6841C123.938 28.5204 123.938 28.5204 124.036 28.3773Z" fill="black"/>
<path d="M150.328 18.0739C150.467 18.0577 150.467 18.0577 150.609 18.0412C150.838 18.0148 151.066 17.9888 151.295 17.9632C151.298 17.9934 151.302 18.0235 151.306 18.0545C149.809 18.4303 149.809 18.4303 149.065 18.6022C149.057 18.5419 149.05 18.4817 149.043 18.4196C148.949 18.4003 148.855 18.381 148.759 18.3611C149.271 18.1833 149.792 18.1338 150.328 18.0739Z" fill="black"/>
<path d="M131.604 17.6477C131.886 17.9792 132.113 18.3379 132.348 18.7044C132.396 18.7774 132.445 18.8504 132.494 18.9256C132.54 18.9967 132.585 19.0679 132.632 19.1412C132.695 19.238 132.695 19.238 132.759 19.3367C132.865 19.5798 132.849 19.7443 132.81 20.0035C132.78 20.0071 132.75 20.0107 132.719 20.0144C132.697 19.9644 132.675 19.9143 132.653 19.8628C132.502 19.5275 132.355 19.2173 132.127 18.9278C131.87 18.5996 131.671 18.2358 131.535 17.8413C131.558 17.7774 131.58 17.7135 131.604 17.6477Z" fill="black"/>
<path d="M122.426 30.3311C122.519 30.3504 122.613 30.3697 122.709 30.3896C122.425 30.8356 122.179 31.2199 121.739 31.5253C121.597 31.689 121.597 31.689 121.499 31.8321C121.435 31.8092 121.372 31.7863 121.306 31.7627C121.675 31.2903 122.045 30.8179 122.426 30.3311Z" fill="black"/>
<path d="M140.401 17.1443C140.405 17.1745 140.408 17.2046 140.412 17.2356C140.235 17.2875 140.059 17.3393 139.877 17.3926C140.004 17.4385 140.132 17.4843 140.263 17.5315C139.903 17.5748 139.543 17.6182 139.172 17.6629C139.156 17.787 139.14 17.9111 139.124 18.039C139.094 18.0426 139.064 18.0463 139.034 18.05C139.008 17.8391 138.983 17.6281 138.957 17.4108C139.436 17.2682 139.903 17.1939 140.401 17.1443Z" fill="black"/>
<path d="M129.153 19.5174C129.062 19.9267 128.79 20.1408 128.487 20.4024C128.438 20.4455 128.39 20.4886 128.341 20.533C128.101 20.7436 127.89 20.9194 127.578 21.0038C127.857 20.6323 128.152 20.3077 128.488 19.9853C128.618 19.8599 128.618 19.8599 128.75 19.732C128.971 19.5393 128.971 19.5393 129.153 19.5174Z" fill="black"/>
<path d="M141.268 13.6127C141.3 13.6682 141.331 13.7236 141.363 13.7807C141.487 13.9875 141.487 13.9875 141.778 14.0145C141.268 14.0759 140.757 14.1374 140.232 14.2006C140.301 14.0071 140.301 14.0071 140.562 13.8829C140.689 13.8616 140.815 13.8446 140.943 13.8314C141.115 13.8135 141.115 13.8135 141.29 13.7953C141.283 13.7351 141.276 13.6748 141.268 13.6127Z" fill="black"/>
<path d="M116.967 1.81065C117.031 1.83356 117.094 1.85646 117.16 1.88006C117.158 2.30904 117.059 2.74707 116.848 3.12179C116.662 3.21224 116.662 3.21224 116.495 3.25689C116.58 2.91849 116.684 2.59262 116.803 2.26466C116.849 2.13639 116.849 2.13639 116.896 2.00554C116.92 1.94123 116.943 1.87691 116.967 1.81065Z" fill="black"/>
<path d="M137.345 33.1663C137.322 33.2302 137.299 33.2941 137.276 33.3599C136.789 33.5785 136.281 33.6882 135.751 33.7287C135.744 33.6684 135.737 33.6081 135.729 33.546C136.271 33.3301 136.764 33.2175 137.345 33.1663Z" fill="black"/>
<path d="M124.597 24.6046C124.691 24.6239 124.785 24.6432 124.881 24.6631C124.859 24.727 124.836 24.7908 124.812 24.8566C124.846 25.0728 124.887 25.288 124.93 25.5024C124.954 25.6183 124.977 25.7342 125.001 25.8536C125.019 25.9428 125.038 26.032 125.057 26.124C124.997 26.1312 124.937 26.1384 124.875 26.1459C124.61 25.7534 124.558 25.3541 124.539 24.8895C124.559 24.7955 124.578 24.7015 124.597 24.6046Z" fill="black"/>
<path d="M128.297 23.1404C128.232 23.4561 128.177 23.514 127.953 23.7299C127.895 23.7862 127.836 23.8424 127.776 23.9004C127.715 23.9585 127.654 24.0166 127.59 24.0764C127.53 24.1355 127.469 24.1945 127.407 24.2554C127.348 24.3113 127.29 24.3673 127.229 24.4249C127.149 24.5018 127.149 24.5018 127.067 24.5802C126.915 24.6961 126.915 24.6961 126.642 24.729C127.977 23.1789 127.977 23.1789 128.297 23.1404Z" fill="black"/>
<path d="M120.87 32.7415C121.003 32.9815 121.009 33.0806 120.943 33.3521C120.787 33.5851 120.787 33.5851 120.46 33.6997C120.362 33.7173 120.263 33.7349 120.161 33.7531C120.234 33.6419 120.307 33.5308 120.381 33.4198C120.421 33.358 120.462 33.2961 120.504 33.2324C120.62 33.0629 120.742 32.9015 120.87 32.7415Z" fill="black"/>
<path d="M142.095 14.3469C142.155 14.3396 142.215 14.3324 142.276 14.325C142.486 14.6022 142.557 14.8465 142.622 15.1865C142.64 15.2756 142.657 15.3647 142.676 15.4565C142.695 15.5581 142.695 15.5581 142.714 15.6617C142.382 15.426 142.285 15.1888 142.149 14.8034C142.106 14.5366 142.106 14.5366 142.095 14.3469Z" fill="black"/>
<path d="M111.698 11.7077C111.762 11.7306 111.826 11.7535 111.891 11.7771C111.788 11.9439 111.685 12.1107 111.582 12.2775C111.536 12.3671 111.49 12.4567 111.442 12.5491C111.233 12.8323 111.077 12.8704 110.739 12.9348C111.058 12.5258 111.378 12.1168 111.698 11.7077Z" fill="black"/>
<path d="M126.279 24.7728C126.406 24.8186 126.533 24.8644 126.664 24.9116C126.535 25.0854 126.402 25.2557 126.264 25.4228C126.204 25.4301 126.144 25.4373 126.082 25.4447C126.065 25.5042 126.047 25.5636 126.029 25.6248C125.945 25.8319 125.945 25.8319 125.694 26.0473C125.74 25.9183 125.786 25.7892 125.832 25.6602C125.864 25.5627 125.896 25.4653 125.929 25.3648C126.023 25.1194 126.104 24.9639 126.279 24.7728Z" fill="black"/>
<path d="M125.08 23.2497C125.181 23.3292 125.282 23.4088 125.386 23.4908C125.209 23.7872 125.031 24.0837 124.848 24.3892C124.777 24.306 124.707 24.2228 124.634 24.1371C124.781 23.8443 124.929 23.5514 125.08 23.2497Z" fill="black"/>
<path d="M141.483 13.8647C141.746 13.8504 141.746 13.8504 142.04 13.8903C142.193 14.1093 142.193 14.1093 142.276 14.325C142.216 14.3322 142.156 14.3394 142.095 14.3469C142.072 14.4107 142.049 14.4746 142.026 14.5404C141.99 14.4854 141.955 14.4304 141.919 14.3738C141.597 14.1198 141.274 14.1846 140.879 14.2153C140.876 14.1852 140.872 14.155 140.868 14.124C141.178 14.0409 141.178 14.0409 141.494 13.956C141.49 13.9259 141.487 13.8958 141.483 13.8647Z" fill="black"/>
<path d="M121.656 16.2518C121.716 16.2446 121.776 16.2374 121.838 16.2299C121.962 16.5704 122.019 16.8912 122.058 17.2512C122.069 17.3489 122.08 17.4465 122.092 17.5472C122.099 17.6211 122.107 17.695 122.115 17.7712C121.82 17.425 121.756 17.1805 121.708 16.7376C121.698 16.6467 121.688 16.5559 121.678 16.4623C121.671 16.3928 121.663 16.3234 121.656 16.2518Z" fill="black"/>
<path d="M134.043 15.2988C134.093 15.3292 134.142 15.3595 134.193 15.3908C134.011 15.6238 133.868 15.7126 133.6 15.8327C133.393 15.8345 133.393 15.8345 133.225 15.7852C133.188 15.7285 133.151 15.6719 133.112 15.6135C133.733 15.2373 133.733 15.2373 134.043 15.2988Z" fill="black"/>
<path d="M136.695 14.719C136.452 14.9281 136.267 15.0255 135.974 15.1474C135.851 15.2 135.851 15.2 135.725 15.2537C135.463 15.3331 135.28 15.3318 135.011 15.2923C135.515 14.9098 136.079 14.7672 136.695 14.719Z" fill="black"/>
<path d="M129.996 34.9773C130 35.0074 130.004 35.0376 130.007 35.0686C130.221 35.0734 130.435 35.0783 130.655 35.0833C130.659 35.1134 130.662 35.1435 130.666 35.1746C130.249 35.2553 129.833 35.336 129.404 35.4192C129.4 35.389 129.396 35.3589 129.393 35.3279C129.117 35.3152 129.117 35.3152 128.836 35.3022C128.832 35.2721 128.829 35.242 128.825 35.2109C129.217 35.1089 129.593 35.0131 129.996 34.9773Z" fill="black"/>
<path d="M122.481 36.1601C122.931 36.1058 123.381 36.0516 123.845 35.9958C123.848 36.0259 123.852 36.0561 123.856 36.0871C123.586 36.1196 123.315 36.1521 123.037 36.1857C123.044 36.2459 123.052 36.3062 123.059 36.3683C122.669 36.4152 122.279 36.4622 121.877 36.5106C121.873 36.4805 121.87 36.4504 121.866 36.4193C122.176 36.3362 122.176 36.3362 122.491 36.2514C122.488 36.2212 122.484 36.1911 122.481 36.1601Z" fill="black"/>
<path d="M106 21.1008C106.03 21.0972 106.06 21.0936 106.091 21.0898C106.176 21.6148 106.194 22.0512 106.084 22.5726C106.054 22.5763 106.024 22.5799 105.993 22.5836C105.963 22.375 105.935 22.1661 105.907 21.9572C105.891 21.841 105.874 21.7247 105.858 21.6049C105.84 21.3053 105.84 21.3053 106 21.1008Z" fill="black"/>
<path d="M111.06 20.2137C111.124 20.2366 111.187 20.2595 111.253 20.2831C111.207 20.3306 111.162 20.3781 111.115 20.4271C110.854 20.8073 110.73 21.2236 110.588 21.6599C110.558 21.6635 110.528 21.6671 110.497 21.6709C110.434 21.0366 110.678 20.7045 111.06 20.2137Z" fill="black"/>
<path d="M140.868 14.124C140.872 14.1541 140.875 14.1843 140.879 14.2153C140.283 14.3177 139.686 14.4201 139.071 14.5256C139.068 14.4955 139.064 14.4653 139.06 14.4343C139.237 14.3825 139.413 14.3307 139.595 14.2773C139.591 14.2472 139.588 14.217 139.584 14.186C140.017 13.9859 140.411 14.0601 140.868 14.124Z" fill="black"/>
<path d="M150.823 17.7306C150.924 17.7373 151.025 17.744 151.129 17.7509C151.245 17.7602 151.245 17.7602 151.364 17.7697C151.341 17.8335 151.318 17.8974 151.295 17.9632C151.054 17.9921 150.814 18.021 150.567 18.0508C150.56 17.9906 150.553 17.9303 150.545 17.8682C150.365 17.8899 150.185 17.9116 149.999 17.9339C150.313 17.6642 150.421 17.7016 150.823 17.7306Z" fill="black"/>
<path d="M106.105 20.4398C106.135 20.4361 106.165 20.4325 106.196 20.4288C106.235 21.0049 106.273 21.581 106.313 22.1746C106.283 22.1782 106.253 22.1818 106.222 22.1855C106.209 22.1179 106.195 22.0503 106.181 21.9807C106.162 21.8917 106.144 21.8027 106.125 21.711C106.107 21.6229 106.089 21.5348 106.07 21.444C106.02 21.2313 105.96 21.039 105.876 20.8378C105.936 20.8306 105.996 20.8234 106.058 20.8159C106.073 20.6918 106.089 20.5677 106.105 20.4398Z" fill="black"/>
<path d="M136.606 14.2609C136.717 14.2487 136.717 14.2487 136.831 14.2362C136.917 14.2275 136.917 14.2275 137.004 14.2187C136.985 14.3127 136.966 14.4067 136.946 14.5035C136.646 14.5397 136.346 14.5758 136.037 14.613C136.03 14.5528 136.022 14.4925 136.015 14.4304C136.221 14.2943 136.362 14.2867 136.606 14.2609Z" fill="black"/>
<path d="M112.531 16.3315C112.512 16.4255 112.493 16.5195 112.473 16.6164C112.275 16.7281 112.275 16.7281 112.031 16.8259C111.91 16.8754 111.91 16.8754 111.786 16.9259C111.723 16.9503 111.661 16.9747 111.596 16.9998C111.615 16.9058 111.635 16.8118 111.654 16.7149C111.953 16.5172 112.173 16.3745 112.531 16.3315Z" fill="black"/>
<path d="M120.219 36.056C120.334 36.0693 120.334 36.0693 120.451 36.0828C120.539 36.0938 120.539 36.0938 120.629 36.1051C120.639 36.1955 120.65 36.2859 120.662 36.379C120.242 36.3889 119.963 36.3844 119.617 36.1343C119.842 35.9853 119.955 36.0243 120.219 36.056Z" fill="black"/>
<path d="M134.745 19.2147C134.387 19.4817 134.134 19.5984 133.686 19.62C133.645 19.5333 133.605 19.4465 133.562 19.3571C133.706 19.3217 133.85 19.2871 133.994 19.253C134.074 19.2337 134.154 19.2144 134.237 19.1945C134.461 19.1563 134.461 19.1563 134.745 19.2147Z" fill="black"/>
<path d="M110.91 12.8216C110.942 13.0955 110.942 13.0955 110.803 13.2812C110.743 13.3455 110.682 13.4098 110.619 13.476C110.558 13.541 110.498 13.606 110.435 13.6729C110.388 13.7222 110.34 13.7715 110.292 13.8223C110.228 13.7994 110.164 13.7765 110.099 13.7529C110.184 13.6204 110.27 13.4886 110.357 13.3571C110.405 13.2836 110.453 13.2101 110.502 13.1344C110.648 12.9458 110.648 12.9458 110.91 12.8216Z" fill="black"/>
<path d="M114.933 7.15003C115.068 7.5043 115.068 7.5043 114.999 7.69069C114.962 7.75098 114.925 7.81127 114.888 7.87339C114.851 7.93459 114.815 7.9958 114.778 8.05886C114.749 8.10484 114.72 8.15082 114.69 8.19819C114.593 8.14877 114.496 8.09935 114.395 8.04843C114.573 7.75196 114.75 7.45548 114.933 7.15003Z" fill="black"/>
<path d="M115.907 5.27287C116.031 5.53583 116.031 5.53583 115.98 5.71091C115.862 5.96484 115.862 5.96484 115.744 6.21877C115.647 6.16935 115.549 6.11993 115.449 6.06901C115.625 5.51526 115.625 5.51526 115.907 5.27287Z" fill="black"/>
<path d="M137.183 9.56577C137.298 9.64031 137.413 9.71536 137.527 9.79063C137.623 9.85324 137.623 9.85325 137.721 9.91712C137.886 10.037 137.886 10.037 137.999 10.2086C137.912 10.2496 137.826 10.2906 137.737 10.3328C137.485 10.1547 137.485 10.1547 137.227 9.93099C137.213 9.81047 137.198 9.68995 137.183 9.56577Z" fill="black"/>
<path d="M123.327 29.3889C123.228 29.7545 123.028 29.9985 122.789 30.2873C122.696 30.268 122.602 30.2487 122.506 30.2289C122.608 30.0925 122.711 29.9567 122.814 29.8212C122.9 29.7077 122.9 29.7077 122.988 29.5919C123.145 29.4108 123.145 29.4108 123.327 29.3889Z" fill="black"/>
<path d="M138.428 16.085C138.524 16.1194 138.524 16.1194 138.621 16.1545C138.791 16.5457 138.921 16.8901 138.946 17.3195C138.613 17.0572 138.507 16.686 138.44 16.2747C138.436 16.2121 138.432 16.1495 138.428 16.085Z" fill="black"/>
<path d="M137.817 10.2305C138.084 10.2353 138.173 10.2608 138.373 10.4472C138.418 10.501 138.462 10.5549 138.508 10.6104C138.435 10.7568 138.435 10.7568 138.359 10.9062C137.841 10.436 137.841 10.436 137.817 10.2305Z" fill="black"/>
<path d="M138.922 14.6304C139.004 14.6214 139.085 14.6125 139.168 14.6033C139.23 14.5969 139.292 14.5906 139.355 14.5841C139.359 14.6142 139.362 14.6443 139.366 14.6754C138.94 14.8504 138.578 14.9789 138.115 15.0113C138.107 14.951 138.1 14.8908 138.093 14.8287C138.369 14.7086 138.623 14.6624 138.922 14.6304Z" fill="black"/>
<path d="M135.729 33.546C135.74 33.6364 135.751 33.7268 135.762 33.82C135.469 33.919 135.469 33.919 135.137 33.9879C134.945 33.8779 134.945 33.8779 134.831 33.7469C135.137 33.6522 135.41 33.5845 135.729 33.546Z" fill="black"/>
<path d="M130.326 21.5993C130.389 21.6222 130.453 21.6451 130.519 21.6687C130.152 22.0338 130.152 22.0338 129.777 22.4064C129.68 22.357 129.582 22.3075 129.482 22.2566C129.618 22.1448 129.755 22.034 129.892 21.9236C129.968 21.8618 130.044 21.8 130.122 21.7363C130.223 21.6685 130.223 21.6685 130.326 21.5993Z" fill="black"/>
<path d="M153.35 18.1789C153.621 18.1746 153.844 18.1817 154.1 18.2739C154.031 18.4674 154.031 18.4674 153.86 18.5806C153.635 18.521 153.412 18.4555 153.19 18.3834C153.243 18.3159 153.296 18.2484 153.35 18.1789Z" fill="black"/>
<path d="M138.921 17.8783C138.962 17.9651 139.002 18.0519 139.045 18.1413C138.717 18.3801 138.486 18.5228 138.077 18.5357C138.17 18.2738 138.3 18.2345 138.538 18.0981C138.609 18.0568 138.68 18.0155 138.754 17.973C138.809 17.9417 138.864 17.9105 138.921 17.8783Z" fill="black"/>
<path d="M115.932 4.71408C116.022 4.70324 116.112 4.6924 116.205 4.68123C116.189 5.12315 116.189 5.12315 116.009 5.35322C115.923 5.39419 115.836 5.43516 115.747 5.47738C115.855 4.93184 115.855 4.93184 115.932 4.71408Z" fill="black"/>
<path d="M117.814 0.41192C117.878 0.434824 117.941 0.457728 118.007 0.481326C117.825 0.89994 117.705 1.13323 117.276 1.31032C117.376 0.944795 117.575 0.700767 117.814 0.41192Z" fill="black"/>
<path d="M134.993 19.7407C135 19.8009 135.007 19.8612 135.014 19.9233C134.682 20.095 134.41 20.2035 134.036 20.2263C134.105 20.0328 134.105 20.0328 134.348 19.8992C134.629 19.7845 134.629 19.7845 134.993 19.7407Z" fill="black"/>
<path d="M131.687 16.804C131.879 16.8214 131.879 16.8214 132.062 16.8515C132.02 17.0094 131.978 17.1673 131.935 17.33C131.897 17.2733 131.86 17.2167 131.822 17.1583C131.762 17.1655 131.702 17.1728 131.64 17.1802C131.617 17.2441 131.594 17.308 131.571 17.3738C131.597 16.9191 131.597 16.9191 131.687 16.804Z" fill="black"/>
<path d="M109.694 18.0624C109.791 18.1119 109.889 18.1613 109.989 18.2122C109.896 18.3011 109.803 18.3894 109.709 18.4774C109.632 18.5513 109.632 18.5513 109.552 18.6266C109.407 18.7454 109.407 18.7454 109.225 18.7673C109.315 18.4446 109.442 18.2794 109.694 18.0624Z" fill="black"/>
<path d="M106.9 17.8431C106.93 17.8395 106.96 17.8359 106.991 17.8321C106.986 18.0467 106.981 18.2612 106.977 18.4822C106.834 18.5606 106.691 18.6389 106.544 18.7196C106.619 18.3911 106.714 18.1249 106.9 17.8431Z" fill="black"/>
<path d="M126.757 32.5885C126.824 32.6415 126.891 32.6946 126.961 32.7492C126.561 32.8432 126.561 32.8432 126.153 32.9391C126.082 32.8559 126.011 32.7727 125.938 32.6871C126.234 32.5739 126.446 32.5111 126.757 32.5885Z" fill="black"/>
<path d="M107.38 17.2296C107.417 17.2862 107.454 17.3429 107.493 17.4012C107.368 17.6302 107.243 17.8592 107.115 18.0951C107.07 17.9782 107.026 17.8613 106.98 17.7408C107.171 17.4631 107.171 17.4631 107.38 17.2296Z" fill="black"/>
<path d="M121.946 30.9447C122.017 31.0278 122.088 31.111 122.161 31.1967C122.064 31.2685 122.064 31.2685 121.965 31.3418C121.774 31.4967 121.639 31.633 121.499 31.8321C121.435 31.8092 121.372 31.7863 121.306 31.7627C121.517 31.4928 121.728 31.2228 121.946 30.9447Z" fill="black"/>
<path d="M123.059 20.2511C123.252 20.3205 123.252 20.3205 123.33 20.4823C123.353 20.5472 123.376 20.6122 123.399 20.6791C123.422 20.7442 123.446 20.8094 123.47 20.8765C123.487 20.9268 123.504 20.9772 123.522 21.029C123.432 21.0399 123.342 21.0507 123.249 21.0619C123.186 20.7943 123.124 20.5268 123.059 20.2511Z" fill="black"/>
<path d="M134.114 7.06378C134.283 7.19637 134.451 7.32896 134.624 7.46556C134.55 7.61199 134.55 7.61199 134.475 7.76138C134.326 7.66938 134.326 7.66938 134.169 7.52031C134.123 7.27698 134.123 7.27698 134.114 7.06378Z" fill="black"/>
<path d="M146.615 17.4151C146.869 17.3671 146.869 17.3671 147.161 17.3494C147.262 17.4289 147.363 17.5085 147.467 17.5904C147.193 17.5928 146.919 17.5952 146.637 17.5977C146.63 17.5374 146.623 17.4771 146.615 17.4151Z" fill="black"/>
<path d="M132.951 18.8749C133.055 18.9846 133.16 19.0943 133.268 19.2073C133.245 19.2712 133.222 19.3351 133.199 19.4009C133.135 19.378 133.071 19.3551 133.006 19.3315C133.013 19.3917 133.02 19.452 133.028 19.5141C132.938 19.5249 132.848 19.5358 132.755 19.5469C132.714 19.4601 132.673 19.3734 132.631 19.284C132.751 19.2695 132.871 19.255 132.995 19.2402C132.98 19.1196 132.966 18.9991 132.951 18.8749Z" fill="black"/>
<path d="M132.574 16.5119C132.698 16.5276 132.822 16.5433 132.949 16.5594C132.757 16.7354 132.565 16.9113 132.368 17.0926C132.353 16.9721 132.339 16.8516 132.324 16.7274C132.406 16.6563 132.489 16.5852 132.574 16.5119Z" fill="black"/>
<path d="M126.688 22.0373C126.778 22.0264 126.868 22.0156 126.961 22.0044C126.871 22.3081 126.824 22.3908 126.572 22.607C126.534 22.5504 126.497 22.4937 126.459 22.4354C126.556 22.2384 126.556 22.2384 126.688 22.0373Z" fill="black"/>
<path d="M138.957 17.4108C139.232 17.4235 139.232 17.4235 139.513 17.4364C139.458 17.466 139.403 17.4956 139.345 17.5261C139.152 17.6481 139.152 17.6481 139.127 17.8651C139.126 17.9225 139.125 17.9799 139.124 18.039C139.094 18.0426 139.064 18.0463 139.034 18.05C139.008 17.8391 138.983 17.6281 138.957 17.4108Z" fill="black"/>
<path d="M132.164 16.9319C132.357 17.2074 132.498 17.495 132.637 17.8012C132.553 17.8572 132.553 17.8572 132.466 17.9144C132.26 17.5844 132.192 17.3192 132.164 16.9319Z" fill="black"/>
<path d="M107.587 16.6489C107.669 16.8068 107.669 16.8068 107.722 17.0031C107.581 17.2503 107.481 17.3101 107.22 17.4341C107.312 17.1493 107.432 16.9046 107.587 16.6489Z" fill="black"/>
<path d="M115.253 6.741C115.294 6.82778 115.335 6.91456 115.377 7.00397C115.245 7.17269 115.113 7.34142 114.977 7.51525C115.006 7.29397 115.041 7.0735 115.082 6.85421C115.139 6.81685 115.195 6.77949 115.253 6.741Z" fill="black"/>
<path d="M125.772 2.14C126.212 2.15647 126.212 2.15647 126.442 2.33727C126.389 2.40476 126.336 2.47224 126.282 2.54178C126.039 2.44361 126.039 2.44361 125.794 2.32261C125.787 2.26235 125.78 2.20209 125.772 2.14Z" fill="black"/>
<path d="M127.237 21.2302C127.247 21.3206 127.258 21.411 127.27 21.5041C127.146 21.6475 127.146 21.6475 126.981 21.7878C126.899 21.8583 126.899 21.8583 126.816 21.9303C126.753 21.9832 126.753 21.9832 126.688 22.0373C126.782 21.6744 126.968 21.4839 127.237 21.2302Z" fill="black"/>
<path d="M111.421 20.9113C111.335 21.1888 111.232 21.3853 111.043 21.6052C111.002 21.5184 110.961 21.4316 110.919 21.3422C111.216 20.9359 111.216 20.9359 111.421 20.9113Z" fill="black"/>
<path d="M135.036 14.7335C135.051 14.854 135.065 14.9745 135.08 15.0987C134.805 15.086 134.805 15.086 134.524 15.0731C134.729 14.7704 134.729 14.7704 135.036 14.7335Z" fill="black"/>
<path d="M133.718 6.83367C133.886 6.96625 134.054 7.09884 134.227 7.23545C134.175 7.30293 134.122 7.37042 134.067 7.43996C133.917 7.34225 133.917 7.34225 133.762 7.19889C133.747 7.07837 133.733 6.95784 133.718 6.83367Z" fill="black"/>
<path d="M60.8047 30.1725L47.634 66.1442L41.9267 68.9451L33.2011 43.0784L25.0243 66.1442L19.317 68.9451L5.2134 30.0627L0 26.9323L1.09756 24.7356H16.1341V26.438L12.128 29.4586L23.5426 61.6409L31.7194 38.7947L28.756 30.0078L23.7073 26.9323L24.8048 24.7356H40.9389V26.438L36.0548 30.2274L46.2621 61.5311L57.5669 30.2274L47.7987 26.9323L48.8962 24.7356H65.5791V26.438L60.8047 30.1725Z" fill="black"/>
<path d="M83.9255 67.9016H68.6146V66.1992L73.4987 62.3548V46.3186L68.6146 42.9136V41.2112L77.9987 37.6964H80.084V63.7827L85.0231 65.7049L83.9255 67.9016ZM76.5719 21.2208C77.6694 21.2208 78.5658 21.6235 79.2609 22.429C79.9926 23.2345 80.3584 24.2413 80.3584 25.4495C80.3584 26.2916 80.1023 27.0971 79.5901 27.8659C79.0779 28.5982 78.4377 29.184 77.6694 29.6233C76.9011 30.0627 76.1511 30.2823 75.4194 30.2823C74.3219 30.2823 73.4072 29.8796 72.6755 29.0741C71.9804 28.2687 71.6328 27.2618 71.6328 26.0536C71.6328 25.2115 71.8889 24.4244 72.4011 23.6921C72.9133 22.9233 73.5536 22.3191 74.3219 21.8798C75.0902 21.4404 75.8402 21.2208 76.5719 21.2208Z" fill="black"/>
<path d="M106.188 38.1906C107.688 38.1906 109.426 38.4103 111.401 38.8497C113.414 39.2524 114.859 39.7101 115.737 40.2226V48.6801H113.651C112.225 46.8495 110.578 45.4216 108.712 44.3964C106.883 43.3347 104.981 42.8038 103.005 42.8038C101.322 42.8038 100.042 43.5544 99.1636 45.0555C98.3221 46.5566 97.9014 48.7533 97.9014 51.6457C97.9014 55.0873 98.6514 57.9797 100.151 60.3229C101.651 62.6294 103.792 63.7827 106.572 63.7827C108.657 63.7827 111.621 62.2816 115.462 59.2794L117.109 61.3663L108.657 68.0115C107.194 68.3044 105.438 68.4508 103.389 68.4508C100.975 68.4508 98.7977 67.8284 96.8587 66.5836C94.9563 65.3021 93.4563 63.5814 92.3587 61.4212C91.2977 59.2611 90.7672 56.8813 90.7672 54.2818C90.7672 51.4626 91.5538 48.8082 93.127 46.3186C94.7367 43.829 96.7489 41.8519 99.1636 40.3874C101.578 38.9229 103.92 38.1906 106.188 38.1906Z" fill="black"/>
<path d="M148.02 23.6372C149.959 23.6372 152.191 23.9118 154.715 24.461C157.276 25.0102 159.142 25.596 160.313 26.2184V36.8726H158.228C154.862 31.1244 150.398 28.2504 144.837 28.2504C142.423 28.2504 140.209 28.9643 138.197 30.3922C136.222 31.7835 134.667 33.7422 133.533 36.2685C132.398 38.7581 131.831 41.559 131.831 44.671C131.831 48.2591 132.38 51.5359 133.478 54.5015C134.612 57.4671 136.313 59.8469 138.581 61.6409C140.886 63.4349 143.722 64.3319 147.087 64.3319C150.197 64.3319 154.661 61.9887 160.478 57.3023L162.124 59.9384L152.026 67.7918C150.673 68.2678 149.356 68.579 148.075 68.7254C146.831 68.9085 145.478 69 144.014 69C140.173 69 136.77 68.0664 133.807 66.1992C130.844 64.3319 128.539 61.769 126.892 58.5105C125.246 55.2154 124.423 51.481 124.423 47.3071C124.423 43.0235 125.667 39.0693 128.155 35.4447C130.642 31.7835 133.734 28.9094 137.429 26.8225C141.124 24.699 144.655 23.6372 148.02 23.6372Z" fill="black"/>
<path d="M197.208 67.9016H186.781V63.1237L180.58 68.0115C179.848 68.3044 178.934 68.4508 177.836 68.4508C174.69 68.4508 172.403 67.6636 170.976 66.0893C169.586 64.515 168.891 62.6294 168.891 60.4327C168.891 59.1146 169.367 57.8149 170.318 56.5335C171.269 55.252 172.623 54.0438 174.379 52.9088H186.781V49.394C186.781 47.0142 186.141 45.3301 184.861 44.3415C183.617 43.353 181.897 42.8587 179.702 42.8587C177.434 42.8587 174.653 44.2317 171.361 46.9776L169.714 44.8907L177.617 38.63C179.08 38.3371 180.836 38.1906 182.885 38.1906C186.214 38.1906 188.794 39.0144 190.623 40.662C192.452 42.2729 193.367 44.6344 193.367 47.7465V63.7827L198.306 65.7049L197.208 67.9016ZM179.592 63.7827C181.824 63.7827 184.22 62.7576 186.781 60.7073V55.1605H177.068C176.592 55.7463 176.245 56.3321 176.025 56.9179C175.842 57.5037 175.751 58.1444 175.751 58.8401C175.751 60.1947 176.098 61.3663 176.794 62.3548C177.489 63.3068 178.422 63.7827 179.592 63.7827Z" fill="black"/>
<path d="M222.512 38.2456C223.719 38.2456 224.78 38.5751 225.695 39.2341C226.61 39.8931 227.323 40.8084 227.835 41.98L224.213 46.5383H222.128C221.982 45.623 221.707 44.9822 221.305 44.6161C220.939 44.2134 220.427 44.012 219.768 44.012C218.963 44.012 218.103 44.2317 217.189 44.671C216.311 45.0738 215.305 45.8609 214.171 47.0325V63.3983L221.853 65.7598L220.756 67.9565H202.701V66.2541L207.585 62.4098V46.8678L202.701 44.012V42.3095L212.085 37.6964L213.786 44.4514L219.494 38.63C220.262 38.3371 221.268 38.1906 222.512 38.1906V38.2456Z" fill="black"/>
<path d="M264.305 67.9016H253.878V63.9475L248.774 68.0115C247.603 68.3044 246.195 68.4508 244.548 68.4508C242.134 68.4508 239.957 67.8284 238.018 66.5836C236.116 65.3021 234.616 63.5814 233.518 61.4212C232.457 59.2611 231.927 56.8813 231.927 54.2818C231.927 51.4626 232.786 48.8265 234.506 46.3735C236.225 43.8839 238.366 41.9068 240.927 40.4423C243.524 38.9412 246.03 38.1906 248.445 38.1906C250.457 38.1906 252.286 38.7581 253.933 39.8931V28.5799L249.048 25.1749V23.4724L258.433 19.9576H260.518V63.7827L265.402 65.7049L264.305 67.9016ZM247.347 63.7827C248.445 63.7827 249.487 63.6363 250.475 63.3434C251.5 63.0139 252.634 62.4098 253.878 61.5311V49.0096C253.658 47.179 252.798 45.6962 251.298 44.5612C249.835 43.3896 247.823 42.8038 245.262 42.8038C241.128 42.8038 239.061 45.7511 239.061 51.6457C239.061 55.0873 239.774 57.9797 241.201 60.3229C242.628 62.6294 244.677 63.7827 247.347 63.7827Z" fill="black"/>
<path d="M287.522 61.9704C287.522 60.9453 286.955 60.0116 285.821 59.1696C284.687 58.2909 282.949 57.2474 280.608 56.0392C278.705 55.0507 277.169 54.1903 275.998 53.458C274.827 52.7258 273.821 51.8837 272.98 50.9318C272.175 49.9432 271.772 48.8815 271.772 47.7465C271.772 46.4284 272.321 45.0189 273.419 43.5177C274.516 42.0166 275.87 40.7535 277.48 39.7284C279.089 38.7032 280.589 38.1906 281.98 38.1906C283.662 38.1906 285.601 38.4103 287.797 38.8497C290.028 39.2524 291.638 39.7101 292.626 40.2226V48.6801H290.54C289.37 46.4101 288.016 44.6527 286.48 43.4079C284.943 42.1265 283.37 41.4858 281.76 41.4858C280.626 41.4858 279.711 41.797 279.016 42.4194C278.321 43.0052 277.973 43.7557 277.973 44.671C277.973 45.806 278.559 46.8312 279.73 47.7465C280.937 48.6252 282.748 49.6686 285.162 50.8768C287.028 51.8288 288.528 52.6525 289.662 53.3482C290.797 54.0438 291.748 54.8676 292.516 55.8195C293.321 56.7348 293.723 57.76 293.723 58.895C293.723 60.2496 293.138 61.6775 291.967 63.1786C290.833 64.6431 289.425 65.8879 287.742 66.9131C286.095 67.9382 284.577 68.4508 283.187 68.4508C281.394 68.4508 279.254 68.2494 276.766 67.8467C274.315 67.4074 272.559 66.9314 271.498 66.4188V57.9614H273.583C274.864 60.2313 276.382 62.007 278.138 63.2885C279.894 64.5333 281.669 65.1557 283.461 65.1557C284.669 65.1557 285.638 64.8445 286.37 64.2221C287.138 63.5997 287.522 62.8491 287.522 61.9704Z" fill="black"/>
</svg>
